<svg width="91" height="15" viewBox="0 0 91 15" fill="none" xmlns="http://www.w3.org/2000/svg">
<g clip-path="url(#clip0_99_578)">
<path d="M14.0291 6.37722C13.9724 6.20286 13.8216 6.07578 13.6401 6.04941L9.79507 5.49079L8.07552 2.00721C7.99437 1.84283 7.82688 1.73877 7.64354 1.73877C7.46019 1.73877 7.29271 1.84284 7.21153 2.00721L5.49193 5.49079L1.64688 6.04941C1.46539 6.07578 1.31468 6.20285 1.25797 6.37722C1.20131 6.55164 1.24855 6.74301 1.37988 6.87102L4.16219 9.58256L3.50536 13.4114C3.47437 13.5921 3.54865 13.7747 3.69698 13.8824C3.84536 13.9902 4.04203 14.0044 4.20433 13.9191L7.64352 12.1114L11.0826 13.9191C11.1531 13.9562 11.2301 13.9744 11.3068 13.9744C11.4067 13.9744 11.5061 13.9434 11.59 13.8824C11.7383 13.7747 11.8126 13.5921 11.7816 13.4114L11.1249 9.58256L13.9072 6.87102C14.0385 6.74305 14.0857 6.55164 14.0291 6.37722Z" fill="#FFBC58"/>
</g>
<g clip-path="url(#clip1_99_578)">
<path d="M33.0291 6.37722C32.9724 6.20286 32.8216 6.07578 32.6401 6.04941L28.7951 5.49079L27.0755 2.00721C26.9944 1.84283 26.8269 1.73877 26.6435 1.73877C26.4602 1.73877 26.2927 1.84284 26.2115 2.00721L24.4919 5.49079L20.6469 6.04941C20.4654 6.07578 20.3147 6.20285 20.258 6.37722C20.2013 6.55164 20.2486 6.74301 20.3799 6.87102L23.1622 9.58256L22.5054 13.4114C22.4744 13.5921 22.5487 13.7747 22.697 13.8824C22.8454 13.9902 23.042 14.0044 23.2043 13.9191L26.6435 12.1114L30.0826 13.9191C30.1531 13.9562 30.2301 13.9744 30.3068 13.9744C30.4067 13.9744 30.5061 13.9434 30.59 13.8824C30.7383 13.7747 30.8126 13.5921 30.7816 13.4114L30.1249 9.58256L32.9072 6.87102C33.0385 6.74305 33.0857 6.55164 33.0291 6.37722Z" fill="#FFBC58"/>
</g>
<g clip-path="url(#clip2_99_578)">
<path d="M71.0291 6.37722C70.9724 6.20286 70.8216 6.07578 70.6401 6.04941L66.7951 5.49079L65.0755 2.00721C64.9944 1.84283 64.8269 1.73877 64.6435 1.73877C64.4602 1.73877 64.2927 1.84284 64.2115 2.00721L62.4919 5.49079L58.6469 6.04941C58.4654 6.07578 58.3147 6.20285 58.258 6.37722C58.2013 6.55164 58.2486 6.74301 58.3799 6.87102L61.1622 9.58256L60.5054 13.4114C60.4744 13.5921 60.5487 13.7747 60.697 13.8824C60.8454 13.9902 61.042 14.0044 61.2043 13.9191L64.6435 12.1114L68.0826 13.9191C68.1531 13.9562 68.2301 13.9744 68.3068 13.9744C68.4067 13.9744 68.5061 13.9434 68.59 13.8824C68.7383 13.7747 68.8126 13.5921 68.7816 13.4114L68.1249 9.58256L70.9072 6.87102C71.0385 6.74305 71.0857 6.55164 71.0291 6.37722Z" fill="#FFBC58"/>
</g>
<g clip-path="url(#clip3_99_578)">
<path d="M90.0291 6.37722C89.9724 6.20286 89.8216 6.07578 89.6401 6.04941L85.7951 5.49079L84.0755 2.00721C83.9944 1.84283 83.8269 1.73877 83.6435 1.73877C83.4602 1.73877 83.2927 1.84284 83.2115 2.00721L81.4919 5.49079L77.6469 6.04941C77.4654 6.07578 77.3147 6.20285 77.258 6.37722C77.2013 6.55164 77.2486 6.74301 77.3799 6.87102L80.1622 9.58256L79.5054 13.4114C79.4744 13.5921 79.5487 13.7747 79.697 13.8824C79.8454 13.9902 80.042 14.0044 80.2043 13.9191L83.6435 12.1114L87.0826 13.9191C87.1531 13.9562 87.2301 13.9744 87.3068 13.9744C87.4067 13.9744 87.5061 13.9434 87.59 13.8824C87.7383 13.7747 87.8126 13.5921 87.7816 13.4114L87.1249 9.58256L89.9072 6.87102C90.0385 6.74305 90.0857 6.55164 90.0291 6.37722Z" fill="#FFBC58"/>
</g>
<g clip-path="url(#clip4_99_578)">
<path d="M52.0291 6.37722C51.9724 6.20286 51.8216 6.07578 51.6401 6.04941L47.7951 5.49079L46.0755 2.00721C45.9944 1.84283 45.8269 1.73877 45.6435 1.73877C45.4602 1.73877 45.2927 1.84284 45.2115 2.00721L43.4919 5.49079L39.6469 6.04941C39.4654 6.07578 39.3147 6.20285 39.258 6.37722C39.2013 6.55164 39.2486 6.74301 39.3799 6.87102L42.1622 9.58256L41.5054 13.4114C41.4744 13.5921 41.5487 13.7747 41.697 13.8824C41.8454 13.9902 42.042 14.0044 42.2043 13.9191L45.6435 12.1114L49.0826 13.9191C49.1531 13.9562 49.2301 13.9744 49.3068 13.9744C49.4067 13.9744 49.5061 13.9434 49.59 13.8824C49.7383 13.7747 49.8126 13.5921 49.7816 13.4114L49.1249 9.58256L51.9072 6.87102C52.0385 6.74305 52.0857 6.55164 52.0291 6.37722Z" fill="#FFBC58"/>
</g>
<defs>
<clipPath id="clip0_99_578">
<rect width="14" height="14" fill="white" transform="translate(0.644531 0.855957)"/>
</clipPath>
<clipPath id="clip1_99_578">
<rect width="14" height="14" fill="white" transform="translate(19.6445 0.855957)"/>
</clipPath>
<clipPath id="clip2_99_578">
<rect width="14" height="14" fill="white" transform="translate(57.6445 0.855957)"/>
</clipPath>
<clipPath id="clip3_99_578">
<rect width="14" height="14" fill="white" transform="translate(76.6445 0.855957)"/>
</clipPath>
<clipPath id="clip4_99_578">
<rect width="14" height="14" fill="white" transform="translate(38.6445 0.855957)"/>
</clipPath>
</defs>
</svg>
