<svg width="645" height="1132" viewBox="0 0 645 1132" fill="none" xmlns="http://www.w3.org/2000/svg">
<g filter="url(#filter0_d_98_20857)">
<ellipse cx="322.5" cy="1104.53" rx="310.5" ry="8.92608" fill="#C4C4C4" fill-opacity="0.01"/>
</g>
<g filter="url(#filter1_d_98_20857)">
<path d="M134.065 1108.36H510.933C522.1 1108.36 532.749 1106.14 542.463 1102.12C542.463 1102.12 411.76 1036.31 323.137 1036.95C234.513 1037.59 102.535 1102.12 102.535 1102.12C112.249 1106.14 122.898 1108.36 134.065 1108.36Z" fill="#C4C4C4" fill-opacity="0.01"/>
</g>
<g filter="url(#filter2_d_98_20857)">
<path d="M51.5298 95.5359C51.5298 49.9526 88.4823 13 134.066 13H510.934C556.518 13 593.47 49.9526 593.47 95.5358V1025.82C593.47 1071.4 556.518 1108.36 510.934 1108.36H134.066C88.4823 1108.36 51.5298 1071.4 51.5298 1025.82V95.5359Z" fill="#F9FAFA"/>
</g>
<g filter="url(#filter3_i_98_20857)">
<path d="M51.5298 95.5359C51.5298 49.9526 88.4823 13 134.066 13H510.934C556.518 13 593.47 49.9526 593.47 95.5358V1025.82C593.47 1071.4 556.518 1108.36 510.934 1108.36H134.066C88.4823 1108.36 51.5298 1071.4 51.5298 1025.82V95.5359Z" fill="#F9FAFA"/>
</g>
<path d="M82.9625 560.71C82.9585 560.684 82.9564 560.658 82.9564 560.632C82.9564 417.757 82.9585 274.883 82.9625 132.01C82.9625 128.306 82.9489 124.599 82.9354 120.892C82.8976 110.573 82.8598 100.244 83.1143 89.9268L83.1143 89.9268C83.6631 67.76 100.344 48.1198 122.033 43.5104C125.922 42.676 129.889 42.2532 133.866 42.2491L133.867 42.2491C149.536 42.2522 165.203 42.2481 180.868 42.237L180.868 42.737M82.9625 560.71L189.421 59.6235C188.706 56.3941 188.64 53.0816 188.574 49.7829L188.572 49.6878L189.072 49.6784M82.9625 560.71V713.188C82.9575 817.611 82.9595 922.043 82.9686 1026.49C82.9686 1029.91 83.0255 1033.37 83.625 1036.83L83.625 1036.83C87.739 1060.53 107.471 1077.72 131.529 1078.48C134.996 1078.6 138.469 1078.59 141.931 1078.58C142.918 1078.57 143.904 1078.57 144.889 1078.57H509.685H509.709C513.027 1078.57 516.404 1078.57 519.747 1077.96C538.751 1074.52 551.869 1063.83 559.052 1045.93L558.588 1045.74L559.052 1045.93C561.735 1039.23 562.091 1032.25 562.091 1025.24C562.071 747.558 562.061 469.878 562.061 192.205C562.038 158.507 562.037 124.807 562.058 91.1031C562.07 86.9151 561.478 82.7471 560.299 78.7276L560.299 78.7272C554.007 57.3178 535.708 42.8902 513.349 42.3704L513.337 42.8702L513.349 42.3704C500.849 42.0816 488.34 42.1507 475.84 42.2198C471.558 42.2435 467.277 42.2671 462.998 42.2764L462.999 42.7764L462.998 42.2764C460.845 42.2811 459.066 42.9266 457.785 44.1533C456.506 45.3782 455.774 47.1332 455.619 49.2608C455.548 50.2287 455.518 51.1972 455.493 52.1562C455.49 52.2911 455.487 52.4258 455.483 52.5602C455.463 53.3849 455.442 54.2017 455.4 55.017L455.4 55.0192C454.816 67.235 446.002 77.4992 433.994 79.9434L433.991 79.9439C431.519 80.461 429.03 80.4606 426.474 80.4601L426.247 80.4601C375.303 80.4631 324.359 80.4631 273.415 80.4601C267.85 80.4592 262.286 80.4669 256.723 80.4746C242.98 80.4935 229.24 80.5125 215.501 80.4026C203.031 80.3046 192.596 71.6419 189.91 59.5154L82.9625 560.71ZM180.868 42.737L180.867 42.237C183.242 42.2308 185.525 42.6351 187.281 44.6152L187.281 44.6155C188.581 46.0835 189.037 47.8189 189.072 49.6777L189.072 49.6784M180.868 42.737C183.191 42.731 185.293 43.1275 186.907 44.947L83.4625 132.01C83.4625 128.302 83.4489 124.593 83.4354 120.884C83.3976 110.567 83.3598 100.249 83.6142 89.9392C84.1571 68.0092 100.669 48.5616 122.138 43.9994C125.993 43.1723 129.924 42.7532 133.867 42.7491C149.536 42.7522 165.203 42.7481 180.868 42.737ZM189.072 49.6784L189.073 49.7495C189.14 53.0645 189.205 56.3347 189.91 59.5153L189.072 49.6784Z" stroke="#E1E1E1" stroke-linejoin="round"/>
<path opacity="0.4" fill-rule="evenodd" clip-rule="evenodd" d="M284.695 55.1274C284.694 53.4943 286.039 52.1701 287.699 52.1697L336.552 52.1574C338.212 52.157 339.558 53.4806 339.558 55.1136L339.559 58.0072C339.559 59.6403 338.214 60.9645 336.554 60.9649L287.701 60.9771C286.041 60.9775 284.696 59.654 284.695 58.0209L284.695 55.1274Z" fill="#C8C8C8"/>
<path opacity="0.546196" fill-rule="evenodd" clip-rule="evenodd" d="M352.316 55.6038C352.316 53.6986 353.885 52.1537 355.821 52.1532L357.741 52.1527C359.677 52.1522 361.247 53.6963 361.247 55.6016L361.248 57.5095C361.248 59.4148 359.679 60.9597 357.743 60.9602L355.823 60.9606C353.887 60.9611 352.317 59.417 352.317 57.5117L352.316 55.6038Z" fill="#C8C8C8"/>
<defs>
<filter id="filter0_d_98_20857" x="0" y="1083.61" width="645" height="41.8521" filterUnits="userSpaceOnUse" color-interpolation-filters="sRGB">
<feFlood flood-opacity="0" result="BackgroundImageFix"/>
<feColorMatrix in="SourceAlpha" type="matrix" values="0 0 0 0 0 0 0 0 0 0 0 0 0 0 0 0 0 0 127 0" result="hardAlpha"/>
<feOffset/>
<feGaussianBlur stdDeviation="6"/>
<feColorMatrix type="matrix" values="0 0 0 0 0 0 0 0 0 0 0 0 0 0 0 0 0 0 0.08 0"/>
<feBlend mode="normal" in2="BackgroundImageFix" result="effect1_dropShadow_98_20857"/>
<feBlend mode="normal" in="SourceGraphic" in2="effect1_dropShadow_98_20857" result="shape"/>
</filter>
<filter id="filter1_d_98_20857" x="93.5347" y="1027.94" width="457.929" height="89.4133" filterUnits="userSpaceOnUse" color-interpolation-filters="sRGB">
<feFlood flood-opacity="0" result="BackgroundImageFix"/>
<feColorMatrix in="SourceAlpha" type="matrix" values="0 0 0 0 0 0 0 0 0 0 0 0 0 0 0 0 0 0 127 0" result="hardAlpha"/>
<feOffset/>
<feGaussianBlur stdDeviation="4.5"/>
<feColorMatrix type="matrix" values="0 0 0 0 0 0 0 0 0 0 0 0 0 0 0 0 0 0 0.33 0"/>
<feBlend mode="normal" in2="BackgroundImageFix" result="effect1_dropShadow_98_20857"/>
<feBlend mode="normal" in="SourceGraphic" in2="effect1_dropShadow_98_20857" result="shape"/>
</filter>
<filter id="filter2_d_98_20857" x="33.9839" y="0.984085" width="577.032" height="1130.45" filterUnits="userSpaceOnUse" color-interpolation-filters="sRGB">
<feFlood flood-opacity="0" result="BackgroundImageFix"/>
<feColorMatrix in="SourceAlpha" type="matrix" values="0 0 0 0 0 0 0 0 0 0 0 0 0 0 0 0 0 0 127 0" result="hardAlpha"/>
<feOffset dy="5.53"/>
<feGaussianBlur stdDeviation="8.77296"/>
<feColorMatrix type="matrix" values="0 0 0 0 0 0 0 0 0 0 0 0 0 0 0 0 0 0 0.03 0"/>
<feBlend mode="normal" in2="BackgroundImageFix" result="effect1_dropShadow_98_20857"/>
<feBlend mode="normal" in="SourceGraphic" in2="effect1_dropShadow_98_20857" result="shape"/>
</filter>
<filter id="filter3_i_98_20857" x="51.5298" y="7.73623" width="541.94" height="1100.62" filterUnits="userSpaceOnUse" color-interpolation-filters="sRGB">
<feFlood flood-opacity="0" result="BackgroundImageFix"/>
<feBlend mode="normal" in="SourceGraphic" in2="BackgroundImageFix" result="shape"/>
<feColorMatrix in="SourceAlpha" type="matrix" values="0 0 0 0 0 0 0 0 0 0 0 0 0 0 0 0 0 0 127 0" result="hardAlpha"/>
<feOffset dy="-5.26377"/>
<feGaussianBlur stdDeviation="8.84534"/>
<feComposite in2="hardAlpha" operator="arithmetic" k2="-1" k3="1"/>
<feColorMatrix type="matrix" values="0 0 0 0 0 0 0 0 0 0 0 0 0 0 0 0 0 0 0.12 0"/>
<feBlend mode="normal" in2="shape" result="effect1_innerShadow_98_20857"/>
</filter>
</defs>
</svg>
