<svg width="24" height="24" viewBox="0 0 24 24" fill="none" xmlns="http://www.w3.org/2000/svg">
<path d="M12.1306 7.8978C9.8239 7.8978 7.9633 9.72933 7.9633 12C7.9633 14.2707 9.8239 16.1022 12.1306 16.1022C14.4373 16.1022 16.2979 14.2707 16.2979 12C16.2979 9.72933 14.4373 7.8978 12.1306 7.8978ZM12.1306 14.667C10.64 14.667 9.42131 13.4709 9.42131 12C9.42131 10.5291 10.6363 9.33304 12.1306 9.33304C13.6249 9.33304 14.8399 10.5291 14.8399 12C14.8399 13.4709 13.6213 14.667 12.1306 14.667V14.667ZM17.4404 7.73C17.4404 8.26197 17.0052 8.68682 16.4684 8.68682C15.928 8.68682 15.4964 8.2584 15.4964 7.73C15.4964 7.20161 15.9316 6.77318 16.4684 6.77318C17.0052 6.77318 17.4404 7.20161 17.4404 7.73ZM20.2005 8.7011C20.1388 7.41939 19.8414 6.28406 18.8875 5.34866C17.9373 4.41325 16.7839 4.1205 15.4819 4.05623C14.1399 3.98126 10.1177 3.98126 8.77573 4.05623C7.47729 4.11693 6.32394 4.40968 5.37006 5.34509C4.41619 6.28049 4.12241 7.41582 4.05712 8.69753C3.98096 10.0185 3.98096 13.9779 4.05712 15.2989C4.11878 16.5806 4.41619 17.7159 5.37006 18.6513C6.32394 19.5867 7.47367 19.8795 8.77573 19.9438C10.1177 20.0187 14.1399 20.0187 15.4819 19.9438C16.7839 19.8831 17.9373 19.5903 18.8875 18.6513C19.8378 17.7159 20.1352 16.5806 20.2005 15.2989C20.2766 13.9779 20.2766 10.0221 20.2005 8.7011V8.7011ZM18.4668 16.7163C18.1839 17.416 17.6363 17.9551 16.9218 18.2372C15.8518 18.6549 13.313 18.5585 12.1306 18.5585C10.9482 18.5585 8.40578 18.6513 7.33947 18.2372C6.6286 17.9587 6.08094 17.4196 5.79441 16.7163C5.37006 15.6631 5.46799 13.1639 5.46799 12C5.46799 10.8361 5.37369 8.33337 5.79441 7.28372C6.07731 6.58396 6.62497 6.04485 7.33947 5.7628C8.40941 5.34509 10.9482 5.44148 12.1306 5.44148C13.313 5.44148 15.8554 5.34866 16.9218 5.7628C17.6326 6.04128 18.1803 6.58039 18.4668 7.28372C18.8912 8.33694 18.7932 10.8361 18.7932 12C18.7932 13.1639 18.8912 15.6666 18.4668 16.7163Z" fill="white"/>
</svg>
