<svg width="24" height="24" viewBox="0 0 24 24" fill="none" xmlns="http://www.w3.org/2000/svg">
<path d="M3.60778 7C4.2372 7 5.1963 7 5.7358 7C6.00555 7 6.21536 7.17403 6.30527 7.40608C6.57502 8.16022 7.17446 9.81354 7.86382 10.9448C8.79296 12.424 9.3924 12.9751 9.78204 12.9171C10.1717 12.8301 10.0518 11.8439 10.0518 11.0608C10.0518 10.2776 10.1417 8.94337 9.75207 8.33425L9.15262 7.49309C9.00276 7.29006 9.15262 7.02901 9.3924 7.02901H12.8092C13.1389 7.02901 13.4087 7.29006 13.4087 7.60912V11.8149C13.4087 11.8149 13.5585 12.5691 14.3977 11.7859C15.237 11.0028 16.1361 9.55249 16.8854 8.0732L17.1852 7.37707C17.2751 7.17403 17.4849 7.02901 17.7246 7.02901H19.9426C20.3622 7.02901 20.6619 7.43508 20.5121 7.81216L20.2723 8.42127C20.2723 8.42127 19.463 9.98757 18.6238 11.0898C17.7846 12.221 17.6048 12.482 17.7246 12.7721C17.8445 13.0622 20.0025 15.0055 20.542 15.9337C20.6919 16.1948 20.8118 16.4268 20.9317 16.6298C21.1415 17.0069 20.8417 17.5 20.3922 17.5H17.8745C17.6647 17.5 17.4549 17.384 17.365 17.2099L17.1252 16.8329C17.1252 16.8329 15.5966 15.0925 14.6675 14.5414C13.7084 14.0193 13.7384 14.7735 13.7384 14.7735V16.3108C13.7384 16.9489 13.1989 17.471 12.5395 17.471H11.94C11.94 17.471 8.6431 17.471 6.00555 13.6713C3.93747 10.7127 3.24812 8.79834 3.00834 7.69613C2.94839 7.34807 3.21814 7 3.60778 7Z" fill="white"/>
</svg>
