<svg width="25" height="25" viewBox="0 0 25 25" fill="none" xmlns="http://www.w3.org/2000/svg">
    <rect width="25" height="25" rx="12.5" fill="#2F80ED"/>
    <path d="M19.4532 8.16051C19.3978 8.1072 19.3327 8.06561 19.2616 8.03812C19.1905 8.01063 19.1148 7.99778 19.0389 8.00031C18.9629 8.00285 18.8882 8.02071 18.819 8.05288C18.7498 8.08504 18.6875 8.13089 18.6356 8.18777L10.9474 16.5932L6.96118 13.1632C6.9033 13.111 6.83582 13.0711 6.76268 13.046C6.68955 13.0209 6.61225 13.011 6.53532 13.0169C6.4584 13.0228 6.38341 13.0444 6.31476 13.0804C6.2461 13.1165 6.18518 13.1662 6.13556 13.2267C6.08595 13.2872 6.04865 13.3572 6.02585 13.4327C6.00305 13.5082 5.99522 13.5875 6.00281 13.6662C6.0104 13.7448 6.03327 13.821 6.07006 13.8905C6.10686 13.9599 6.15684 14.0211 6.21706 14.0705L10.6227 17.8613C10.7269 17.9511 10.8587 18.0002 10.9948 18C11.074 18.0003 11.1524 17.9838 11.2251 17.9515C11.2978 17.9193 11.3632 17.8721 11.4172 17.8127L19.4798 8.99845C19.5318 8.94165 19.5724 8.87492 19.5992 8.80206C19.626 8.7292 19.6385 8.65165 19.6361 8.57383C19.6336 8.49601 19.6162 8.41946 19.5848 8.34854C19.5534 8.27762 19.5087 8.21373 19.4532 8.16051Z" fill="#fff" stroke="#fff"/>
</svg>
