<svg width="24" height="24" viewBox="0 0 24 24" fill="none" xmlns="http://www.w3.org/2000/svg">
<path d="M21.3583 5.01187C21.2852 4.9415 21.1993 4.88659 21.1055 4.8503C21.0116 4.81402 20.9117 4.79706 20.8114 4.8004C20.7112 4.80374 20.6125 4.82732 20.5212 4.86978C20.4298 4.91225 20.3476 4.97276 20.2791 5.04785L10.1306 16.143L4.86886 11.6154C4.79246 11.5465 4.70337 11.4939 4.60684 11.4607C4.5103 11.4275 4.40826 11.4145 4.30672 11.4223C4.20519 11.4301 4.10619 11.4586 4.01557 11.5062C3.92495 11.5537 3.84453 11.6194 3.77904 11.6992C3.71355 11.7791 3.66431 11.8715 3.63422 11.9711C3.60412 12.0708 3.59378 12.1755 3.60381 12.2793C3.61383 12.3831 3.64401 12.4838 3.69258 12.5754C3.74115 12.6671 3.80712 12.7479 3.88662 12.813L9.70212 17.8169C9.83959 17.9354 10.0136 18.0003 10.1932 18C10.2978 18.0003 10.4013 17.9785 10.4972 17.936C10.5932 17.8935 10.6795 17.8311 10.7508 17.7528L21.3935 6.11794C21.4621 6.04297 21.5157 5.95488 21.551 5.85871C21.5864 5.76253 21.603 5.66016 21.5997 5.55744C21.5964 5.45473 21.5734 5.35367 21.532 5.26006C21.4906 5.16644 21.4316 5.08211 21.3583 5.01187Z" fill="#2F80ED" stroke="#2F80ED"/>
<rect x="0.5" y="0.5" width="23" height="23" rx="4.5" stroke="#E9EDF1"/>
</svg>
