<svg width="24" height="24" viewBox="0 0 24 24" fill="none" xmlns="http://www.w3.org/2000/svg">
<path d="M14.8125 17.8987C15.123 17.8987 15.375 17.646 15.375 17.3346V9.43715C15.375 9.12577 15.123 8.87305 14.8125 8.87305C14.502 8.87305 14.25 9.12577 14.25 9.43715V17.3346C14.25 17.646 14.502 17.8987 14.8125 17.8987Z" fill="#2F80ED" stroke="#2F80ED" stroke-width="0.3"/>
<path d="M9.1875 17.8997C9.49799 17.8997 9.74999 17.6469 9.74999 17.3356V9.43812C9.74999 9.12675 9.49799 8.87402 9.1875 8.87402C8.87701 8.87402 8.625 9.12675 8.625 9.43812V17.3355C8.625 17.6469 8.87698 17.8997 9.1875 17.8997Z" fill="#2F80ED" stroke="#2F80ED" stroke-width="0.3"/>
<path d="M19.875 3.25642H16.5V2.1282C16.5 1.50543 15.996 1 15.375 1H8.62499C8.00399 1 7.49997 1.50432 7.49997 2.1282V3.2564H4.12499C3.50399 3.2564 3 3.76183 3 4.3846V5.5128C3 6.13557 3.50399 6.641 4.12499 6.641V20.7436C4.12499 21.9891 5.13187 22.9999 6.37501 22.9999L17.625 23C18.867 23 19.875 21.9903 19.875 20.7436V6.64102C20.496 6.64102 21 6.13673 21 5.51282V4.38462C21 3.76185 20.496 3.25642 19.875 3.25642ZM8.62499 2.64209C8.62499 2.33072 8.877 2.07799 9.18749 2.07799H14.8125C15.123 2.07799 15.375 2.33072 15.375 2.64209V3.20619C14.8305 3.20619 8.62499 3.20619 8.62499 3.20619V2.64209ZM18.75 20.7436C18.75 21.3664 18.246 21.8718 17.625 21.8718H6.37501C5.75398 21.8718 5.24999 21.3664 5.24999 20.7436V6.64102C6.02287 6.64102 18.1177 6.64102 18.75 6.64102V20.7436H18.75ZM19.3125 5.51282H4.68749C4.377 5.51282 4.12499 5.2601 4.12499 4.94875C4.12499 4.63738 4.377 4.38465 4.68749 4.38465H19.3125C19.623 4.38465 19.875 4.63738 19.875 4.94875C19.875 5.2601 19.623 5.51282 19.3125 5.51282Z" fill="#2F80ED" stroke="#2F80ED" stroke-width="0.3"/>
</svg>
