<svg width="24" height="24" viewBox="0 0 24 24" fill="#09244B" xmlns="http://www.w3.org/2000/svg">
    <path d="M14.9344 20.4167C14.9344 21.5589 14.0506 22.4947 12.9294 22.5774L12.7677 22.5833H10.6011C9.45885 22.5833 8.52306 21.6995 8.44035 20.5784L8.4344 20.4167H14.9344ZM11.6846 2C15.7855 2 19.1261 5.25519 19.2636 9.32263L19.268 9.58333V13.6609L21.2418 17.6088C21.6191 18.3634 21.1145 19.2449 20.3004 19.3271L20.176 19.3333H3.19321C2.34953 19.3333 1.78675 18.4878 2.07729 17.7228L2.12735 17.6088L4.10125 13.6609V9.58333C4.10125 5.39518 7.49642 2 11.6846 2Z"/>
</svg>
