<svg width="147" height="146" viewBox="0 0 147 146" fill="none" xmlns="http://www.w3.org/2000/svg">
<path d="M136.173 93.9888L128.789 92.6389C127.089 92.3281 125.876 91.6551 125.151 90.6197C124.435 89.5983 124.225 88.279 124.52 86.6618C124.68 85.7882 124.958 85.034 125.355 84.399C125.761 83.7779 126.243 83.3109 126.8 82.9981C126.392 82.4964 126.108 81.8833 125.947 81.1587C125.797 80.448 125.801 79.6559 125.961 78.7824C126.257 77.1652 126.927 76.0007 127.972 75.2891C129.017 74.5774 130.383 74.3759 132.072 74.6845L139.455 76.0344L139.034 78.3362L131.722 76.9993C130.6 76.7943 129.738 76.8745 129.134 77.2399C128.528 77.6171 128.143 78.2543 127.979 79.1514C127.641 81.0047 128.551 82.1288 130.712 82.5237L138.024 83.8607L137.603 86.1625L130.291 84.8256C128.13 84.4306 126.88 85.1657 126.539 87.0308C126.204 88.8605 127.117 89.9728 129.277 90.3677L136.59 91.7047L136.173 93.9888Z" fill="#2F80ED"/>
<path d="M126.904 106.043L118.354 101.651L119.333 99.7454L120.437 100.313C120.202 99.7737 120.109 99.2065 120.158 98.6113C120.202 98.0268 120.375 97.441 120.676 96.8539C121.104 96.0213 121.669 95.3673 122.372 94.8919C123.069 94.4272 123.845 94.1781 124.699 94.1444C125.547 94.1214 126.409 94.3347 127.284 94.7843C128.159 95.2339 128.829 95.8074 129.294 96.5048C129.764 97.2183 130.013 97.9939 130.041 98.8314C130.064 99.6796 129.862 100.52 129.434 101.353C129.149 101.908 128.793 102.365 128.365 102.726C127.931 103.097 127.44 103.357 126.891 103.507L127.932 104.041L126.904 106.043ZM122.274 97.958C121.896 98.6946 121.829 99.4291 122.073 100.162C122.318 100.894 122.84 101.466 123.64 101.877C124.441 102.289 125.21 102.38 125.948 102.152C126.686 101.924 127.244 101.442 127.622 100.705C128 99.9685 128.067 99.2339 127.823 98.5014C127.573 97.7795 127.048 97.213 126.248 96.8017C125.447 96.3905 124.681 96.2936 123.948 96.5111C123.211 96.7392 122.653 97.2215 122.274 97.958Z" fill="#2F80ED"/>
<path d="M114.063 108.257C114.05 107.916 114.116 107.56 114.261 107.189C114.4 106.827 114.595 106.478 114.848 106.143C115.485 105.301 116.197 104.816 116.985 104.689C117.773 104.563 118.588 104.818 119.43 105.454L126.309 110.653L124.952 112.448L123.2 111.124L121.648 113.177L120.212 112.092L121.764 110.039L118.117 107.282C117.743 107 117.387 106.874 117.049 106.904C116.713 106.951 116.418 107.141 116.165 107.477C115.861 107.879 115.713 108.293 115.721 108.721L114.063 108.257Z" fill="#2F80ED"/>
<path d="M109.341 112.18C110.06 111.491 110.851 111.024 111.714 110.78C112.577 110.536 113.425 110.529 114.261 110.759C115.104 110.998 115.854 111.46 116.509 112.145C117.165 112.83 117.589 113.594 117.783 114.439C117.977 115.283 117.937 116.127 117.664 116.97C117.383 117.821 116.878 118.595 116.15 119.292C115.465 119.947 114.734 120.381 113.957 120.593C113.171 120.814 112.4 120.789 111.642 120.518L112.193 118.594C112.699 118.724 113.179 118.722 113.632 118.588C114.084 118.47 114.488 118.241 114.843 117.901C115.45 117.32 115.762 116.64 115.779 115.859C115.804 115.087 115.502 114.372 114.871 113.713C114.24 113.054 113.539 112.712 112.767 112.687C111.995 112.679 111.301 112.969 110.686 113.558C110.33 113.899 110.08 114.288 109.935 114.726C109.789 115.181 109.77 115.664 109.878 116.176L107.932 116.643C107.703 115.866 107.712 115.085 107.958 114.301C108.204 113.534 108.665 112.827 109.341 112.18Z" fill="#2F80ED"/>
<path d="M106.141 127.017C105.119 127.667 104.109 127.89 103.111 127.686C102.113 127.482 101.241 126.792 100.494 125.618L97.5368 120.971L99.4351 119.763L102.237 124.167C102.688 124.876 103.193 125.301 103.753 125.443C104.319 125.595 104.911 125.474 105.528 125.081C106.227 124.637 106.643 124.073 106.778 123.39C106.919 122.717 106.738 121.986 106.236 121.196L103.627 117.096L105.525 115.888L112.695 127.156L110.796 128.364L108.187 124.264C108.086 124.798 107.862 125.296 107.516 125.758C107.167 126.236 106.708 126.656 106.141 127.017Z" fill="#2F80ED"/>
<path d="M85.3696 135.379L86.6768 125.003L88.9085 124.362L95.5247 132.462L93.2757 133.108L88.4354 127.082L87.4456 134.783L85.3696 135.379Z" fill="#2F80ED"/>
<path d="M82.9206 135.636L80.6922 135.947L79.3635 126.427L81.5919 126.116L82.9206 135.636ZM82.0165 137.362C82.4205 137.305 82.7767 137.383 83.0849 137.594C83.3947 137.818 83.5762 138.119 83.6293 138.5C83.6823 138.88 83.5896 139.214 83.3511 139.502C83.1142 139.801 82.7938 139.979 82.3897 140.036C81.9856 140.092 81.6295 140.015 81.3213 139.803C81.0148 139.604 80.8358 139.32 80.7844 138.951C80.7296 138.559 80.8199 138.207 81.0551 137.896C81.28 137.598 81.6005 137.42 82.0165 137.362Z" fill="#2F80ED"/>
<path d="M66.7212 140.06L67.0304 126.708L69.1899 126.758L69.1611 127.999C69.5436 127.552 70.0134 127.221 70.5705 127.006C71.1156 126.79 71.7181 126.69 72.3779 126.705C73.3017 126.727 74.1307 126.95 74.8651 127.375C75.5874 127.8 76.1499 128.389 76.5526 129.143C76.955 129.908 77.1449 130.777 77.1224 131.749C77.0999 132.72 76.8701 133.573 76.433 134.307C75.9959 135.041 75.4067 135.604 74.6654 135.995C73.9122 136.386 73.0737 136.57 72.1499 136.549C71.5141 136.534 70.9347 136.413 70.4119 136.184C69.889 135.956 69.4467 135.622 69.0848 135.181L68.9706 140.112L66.7212 140.06ZM72.0634 128.625C71.5235 128.612 71.0349 128.721 70.5975 128.951C70.1597 129.193 69.8096 129.539 69.5471 129.989C69.2846 130.439 69.1464 130.964 69.1326 131.564C69.1187 132.163 69.2324 132.694 69.4738 133.156C69.7151 133.618 70.049 133.973 70.4753 134.223C70.9014 134.485 71.3843 134.623 71.9242 134.635C72.464 134.648 72.9528 134.533 73.3905 134.291C73.828 134.061 74.1779 133.721 74.4404 133.271C74.7029 132.821 74.8411 132.296 74.855 131.696C74.8689 131.096 74.7552 130.566 74.5138 130.104C74.2724 129.642 73.9387 129.28 73.5127 129.018C73.0863 128.768 72.6033 128.637 72.0634 128.625Z" fill="#2F80ED"/>
<path d="M59.9263 127.115C58.9099 126.876 57.9834 127.017 57.1469 127.535L56.3068 125.914C56.8336 125.508 57.4484 125.252 58.1512 125.145C58.8541 125.039 59.6086 125.081 60.4147 125.27C61.4428 125.511 62.3002 125.928 62.9871 126.52C63.6739 127.113 64.1484 127.822 64.4108 128.648C64.6587 129.482 64.6744 130.361 64.4579 131.284C64.2441 132.195 63.8478 132.965 63.2689 133.594C62.6757 134.231 61.9689 134.669 61.1487 134.908C60.3167 135.144 59.4393 135.154 58.5163 134.938C57.6401 134.732 56.8909 134.353 56.2687 133.8C55.6321 133.256 55.1871 132.579 54.9337 131.768C54.6776 130.968 54.6605 130.095 54.8825 129.149L62.3788 129.428C62.2829 128.839 62.0225 128.346 61.5976 127.951C61.1727 127.555 60.6156 127.277 59.9263 127.115ZM58.9275 133.185C59.7336 133.374 60.4495 133.265 61.0752 132.857C61.6892 132.446 62.1003 131.797 62.3086 130.909L62.3128 130.892L56.782 130.667C56.7996 131.275 57.0009 131.809 57.386 132.269C57.7594 132.726 58.2732 133.032 58.9275 133.185Z" fill="#2F80ED"/>
<path d="M50.5352 121.875C51.4187 122.28 52.1274 122.836 52.6613 123.543C53.1953 124.25 53.509 125.034 53.6024 125.896C53.68 126.763 53.5211 127.627 53.126 128.489C52.7308 129.351 52.1818 130.03 51.479 130.526C50.7653 131.017 49.9664 131.291 49.0823 131.348C48.1982 131.404 47.3144 131.23 46.4309 130.825C45.5365 130.415 44.8223 129.856 44.2884 129.149C43.7544 128.442 43.4462 127.661 43.3637 126.804C43.2702 125.943 43.4211 125.082 43.8162 124.22C44.2114 123.358 44.7683 122.676 45.4871 122.174C46.1899 121.678 46.9833 121.401 47.8674 121.345C48.7515 121.288 49.6407 121.465 50.5352 121.875ZM49.7323 123.626C48.9797 123.281 48.2429 123.246 47.5219 123.523C46.801 123.8 46.2529 124.347 45.8778 125.165C45.5026 125.983 45.4454 126.756 45.7062 127.483C45.9669 128.209 46.4736 128.745 47.2263 129.091C47.9789 129.436 48.7157 129.47 49.4366 129.193C50.1467 128.912 50.6893 128.362 51.0644 127.544C51.4396 126.726 51.5022 125.956 51.2524 125.234C50.9916 124.507 50.4849 123.971 49.7323 123.626Z" fill="#2F80ED"/>
<path d="M19.2241 113.141L24.5891 107.891C25.8243 106.683 27.074 106.081 28.3383 106.087C29.5857 106.092 30.7842 106.682 31.934 107.857C32.555 108.492 33.0102 109.154 33.2997 109.845C33.5722 110.535 33.6753 111.198 33.609 111.834C34.2544 111.79 34.9192 111.912 35.6034 112.199C36.2706 112.486 36.9148 112.947 37.5358 113.582C38.6856 114.757 39.2493 115.977 39.227 117.241C39.2048 118.505 38.5804 119.737 37.3538 120.937L31.9887 126.187L30.3522 124.514L35.6658 119.315C36.4807 118.518 36.9132 117.767 36.9633 117.064C37.005 116.351 36.7069 115.669 36.0691 115.017C34.7515 113.671 33.3079 113.765 31.7383 115.301L26.4246 120.5L24.7881 118.827L30.1018 113.628C31.6714 112.093 31.7932 110.647 30.4672 109.292C29.1664 107.962 27.7312 108.066 26.1616 109.601L20.848 114.8L19.2241 113.141Z" fill="#2F80ED"/>
<path d="M14.7417 98.6289L23.259 94.1739L24.2517 96.0719L23.1512 96.6476C23.7277 96.7658 24.2449 97.0167 24.7027 97.4002C25.155 97.773 25.5342 98.2518 25.8401 98.8366C26.2739 99.666 26.4824 100.505 26.4657 101.353C26.4435 102.191 26.2 102.968 25.7354 103.685C25.2653 104.392 24.5942 104.973 23.7223 105.429C22.8504 105.885 21.9955 106.102 21.1578 106.08C20.3039 106.052 19.5265 105.809 18.8257 105.349C18.1194 104.879 17.5493 104.229 17.1154 103.4C16.8262 102.847 16.6577 102.292 16.61 101.735C16.5567 101.167 16.6271 100.615 16.8213 100.08L15.7845 100.623L14.7417 98.6289ZM24.0166 99.506C23.6328 98.7723 23.0713 98.2941 22.3319 98.0715C21.5924 97.8488 20.824 97.9461 20.0265 98.3632C19.229 98.7803 18.7108 99.3561 18.472 100.09C18.2331 100.825 18.3056 101.559 18.6893 102.292C19.0731 103.026 19.6347 103.504 20.3741 103.727C21.1079 103.939 21.8736 103.836 22.6711 103.419C23.4686 103.002 23.9896 102.432 24.234 101.708C24.4728 100.974 24.4004 100.24 24.0166 99.506Z" fill="#2F80ED"/>
<path d="M20.3487 86.8597C20.6343 87.0463 20.8864 87.3064 21.1052 87.64C21.3203 87.9621 21.4912 88.3234 21.6178 88.7239C21.9362 89.7307 21.9191 90.592 21.5664 91.3076C21.2138 92.0232 20.534 92.5402 19.5272 92.8586L11.3064 95.4582L10.628 93.3129L12.7218 92.6508L11.9457 90.1965L13.662 89.6538L14.438 92.1081L18.7973 90.7296C19.2435 90.5885 19.5524 90.3712 19.7239 90.0779C19.8804 89.7767 19.8953 89.4259 19.7687 89.0254C19.6167 88.5449 19.3642 88.1842 19.0112 87.9434L20.3487 86.8597Z" fill="#2F80ED"/>
<path d="M19.8859 80.7921C20.0312 81.7774 19.9538 82.6925 19.6538 83.5373C19.3538 84.3821 18.8681 85.0783 18.1968 85.6261C17.5137 86.1756 16.7031 86.5195 15.7653 86.6577C14.8274 86.796 13.9581 86.6997 13.1573 86.3689C12.3565 86.0382 11.6915 85.5176 11.1622 84.8072C10.6312 84.0849 10.2922 83.2251 10.1452 82.2279C10.007 81.2901 10.0762 80.4429 10.3528 79.6865C10.6277 78.9182 11.0951 78.3035 11.7549 77.8423L13.0041 79.4048C12.6051 79.7426 12.3293 80.135 12.1769 80.582C12.0108 81.0189 11.9637 81.4808 12.0354 81.9675C12.1579 82.7985 12.5325 83.4468 13.1591 83.9124C13.7738 84.3798 14.5323 84.547 15.4345 84.414C16.3368 84.281 17.0216 83.9071 17.4889 83.2924C17.9427 82.6675 18.1074 81.9337 17.9832 81.0908C17.9114 80.604 17.7389 80.1746 17.4658 79.8024C17.1789 79.4202 16.7958 79.1249 16.3163 78.9166L17.0615 77.0601C17.8281 77.3231 18.4597 77.7819 18.9565 78.4365C19.4396 79.0809 19.7494 79.8661 19.8859 80.7921Z" fill="#2F80ED"/>
<path d="M9.64065 69.4387C9.70609 68.2285 10.1121 67.277 10.8585 66.5843C11.605 65.8916 12.6733 65.5828 14.0632 65.658L19.5632 65.9554L19.4417 68.2021L14.2293 67.9203C13.3906 67.8749 12.7508 68.0386 12.31 68.4114C11.8573 68.7835 11.6111 69.335 11.5716 70.0659C11.5269 70.8927 11.7432 71.5593 12.2206 72.0659C12.6859 72.5717 13.3859 72.8499 14.3206 72.9005L19.1735 73.1629L19.052 75.4096L5.71546 74.6884L5.83695 72.4417L10.6899 72.7041C10.3145 72.3113 10.0396 71.8398 9.86504 71.2895C9.67916 70.7267 9.60436 70.1097 9.64065 69.4387Z" fill="#2F80ED"/>
<path d="M14.8894 47.5835L22.5752 54.6764L21.8004 56.8654L11.3639 57.544L12.1447 55.3381L19.8612 54.8997L14.1687 49.6197L14.8894 47.5835Z" fill="#2F80ED"/>
<path d="M16.0624 45.4971L17.1053 43.5034L25.6225 47.9584L24.5797 49.9521L16.0624 45.4971ZM15.1844 43.7581C14.9953 44.1197 14.7252 44.3643 14.374 44.4921C14.0121 44.6143 13.661 44.5864 13.3208 44.4084C12.9805 44.2304 12.7627 43.9608 12.6673 43.5994C12.5613 43.2325 12.6028 42.8683 12.7919 42.5067C12.981 42.1452 13.2512 41.9005 13.6024 41.7728C13.943 41.6394 14.2781 41.659 14.6078 41.8314C14.9587 42.0149 15.1924 42.293 15.3091 42.6654C15.4206 43.0217 15.3791 43.386 15.1844 43.7581Z" fill="#2F80ED"/>
<path d="M21.6674 29.9699L32.3814 37.9444L31.0917 39.6771L30.0954 38.9355C30.2391 39.5062 30.2376 40.081 30.0909 40.6599C29.9514 41.2293 29.6846 41.7786 29.2905 42.3081C28.7388 43.0493 28.0772 43.5965 27.3057 43.9497C26.5413 44.2933 25.7354 44.4115 24.8878 44.3042C24.0305 44.1897 23.2121 43.8423 22.4323 43.262C21.6526 42.6816 21.0897 42.0009 20.7437 41.2197C20.3976 40.4386 20.2795 39.6326 20.3892 38.8018C20.5062 37.9614 20.8405 37.1705 21.3922 36.4293C21.7719 35.9191 22.206 35.5167 22.6946 35.2221C23.1831 34.9276 23.7117 34.76 24.2803 34.7195L20.3239 31.7748L21.6674 29.9699ZM27.9067 40.9415C28.2291 40.5083 28.423 40.0468 28.4884 39.557C28.5442 39.06 28.4645 38.5743 28.2491 38.0999C28.0338 37.6254 27.6855 37.2091 27.2041 36.8509C26.7228 36.4926 26.224 36.2784 25.7078 36.2083C25.1915 36.1382 24.7082 36.2048 24.2577 36.408C23.7976 36.6041 23.4064 36.9188 23.0839 37.3519C22.7615 37.7851 22.5724 38.2502 22.5166 38.7472C22.4512 39.2371 22.5262 39.7192 22.7415 40.1936C22.9569 40.668 23.3052 41.0843 23.7865 41.4426C24.2678 41.8008 24.7666 42.015 25.2829 42.0851C25.7991 42.1552 26.2873 42.0923 26.7474 41.8962C27.1978 41.6929 27.5843 41.3747 27.9067 40.9415Z" fill="#2F80ED"/>
<path d="M36.1434 31.8941C36.9258 31.2028 37.3474 30.366 37.4082 29.3836L39.2162 29.6357C39.243 30.3005 39.0966 30.9503 38.7768 31.5851C38.4569 32.22 37.9868 32.8115 37.3662 33.3597C36.5749 34.0589 35.7389 34.5173 34.8583 34.7348C33.9776 34.9524 33.1247 34.9294 32.2993 34.6658C31.475 34.3853 30.749 33.8898 30.1214 33.1793C29.5016 32.4779 29.1029 31.7093 28.925 30.8737C28.7482 30.0211 28.7996 29.1911 29.079 28.3838C29.3675 27.5685 29.867 26.847 30.5774 26.2193C31.2519 25.6234 31.9945 25.2315 32.8053 25.0436C33.6171 24.8388 34.4272 24.8677 35.2356 25.1302C36.0361 25.3838 36.7581 25.8748 37.4016 26.6032L32.8379 32.5567C33.3742 32.8195 33.9266 32.8919 34.495 32.774C35.0634 32.6562 35.6128 32.3628 36.1434 31.8941ZM31.7692 27.5683C31.1487 28.1165 30.8238 28.7638 30.7947 29.5101C30.7745 30.2485 31.0663 30.9594 31.6702 31.6429L31.6821 31.6563L35.0647 27.2748C34.5585 26.9374 34.0063 26.7927 33.4082 26.8408C32.8192 26.8808 32.2728 27.1233 31.7692 27.5683Z" fill="#2F80ED"/>
<path d="M45.6441 27.3302C44.8036 27.8184 43.9407 28.0768 43.0552 28.1054C42.1698 28.134 41.3483 27.9381 40.5907 27.5178C39.8374 27.081 39.2227 26.4528 38.7465 25.633C38.2704 24.8133 38.0322 23.9733 38.0321 23.1129C38.0424 22.2466 38.2792 21.4359 38.7428 20.681C39.2063 19.926 39.8583 19.3045 40.6988 18.8163C41.5497 18.322 42.4178 18.0606 43.3033 18.032C44.1887 18.0034 45.005 18.2023 45.7523 18.6287C46.5099 19.049 47.1268 19.6691 47.6029 20.4888C48.0791 21.3086 48.315 22.1568 48.3108 23.0335C48.3109 23.8939 48.0793 24.7015 47.6157 25.4564C47.1522 26.2114 46.495 26.836 45.6441 27.3302ZM44.6768 25.6648C45.3927 25.2489 45.8456 24.6667 46.0353 23.9181C46.225 23.1696 46.0938 22.4062 45.6418 21.628C45.1897 20.8497 44.5916 20.3576 43.8474 20.1515C43.1032 19.9454 42.3731 20.0503 41.6571 20.4661C40.9411 20.882 40.4883 21.4642 40.2986 22.2128C40.1193 22.9553 40.2557 23.7157 40.7077 24.4939C41.1597 25.2721 41.7527 25.7673 42.4865 25.9794C43.2307 26.1855 43.9608 26.0807 44.6768 25.6648Z" fill="#2F80ED"/>
<path d="M71.2549 6.65628L72.4064 14.0734C72.6715 15.781 72.4343 17.1475 71.6949 18.1731C70.9655 19.185 69.7886 19.817 68.164 20.0692C67.2865 20.2055 66.4827 20.1906 65.7526 20.0246C65.0325 19.845 64.4332 19.5434 63.9545 19.1198C63.615 19.6704 63.1293 20.1405 62.4976 20.53C61.8759 20.9058 61.1263 21.1618 60.2488 21.2981C58.6243 21.5503 57.3043 21.2998 56.2887 20.5467C55.2731 19.7936 54.6337 18.5692 54.3705 16.8735L53.219 9.45636L55.5313 9.09737L56.6717 16.4434C56.8466 17.5699 57.2058 18.3581 57.7493 18.8081C58.3046 19.2562 59.0328 19.4103 59.934 19.2704C61.7957 18.9813 62.5581 17.7518 62.2212 15.5818L61.0808 8.23581L63.3931 7.87682L64.5335 15.2228C64.8704 17.3928 65.9757 18.3324 67.8492 18.0415C69.6872 17.7562 70.4377 16.5285 70.1009 14.3585L68.9604 7.0125L71.2549 6.65628Z" fill="#2F80ED"/>
<path d="M85.8444 11.4226L84.5157 20.9423L82.3943 20.6462L82.566 19.4161C82.1345 19.8163 81.6297 20.0912 81.0514 20.2407C80.4851 20.3918 79.8751 20.4218 79.2214 20.3306C78.2944 20.2012 77.4907 19.883 76.8102 19.3761C76.1417 18.8708 75.6508 18.2207 75.3377 17.4258C75.0365 16.6326 74.9538 15.7487 75.0899 14.7741C75.2259 13.7996 75.5465 12.978 76.0518 12.3094C76.5706 11.6306 77.2207 11.1398 78.0021 10.8369C78.7953 10.5356 79.6555 10.4497 80.5825 10.5791C81.2005 10.6654 81.7501 10.8511 82.2313 11.1364C82.7244 11.4233 83.132 11.8013 83.4543 12.2703L83.616 11.1115L85.8444 11.4226ZM79.7373 18.4579C80.5573 18.5724 81.2729 18.3936 81.884 17.9215C82.4951 17.4494 82.8629 16.7677 82.9873 15.8764C83.1117 14.985 82.9447 14.2287 82.4862 13.6073C82.0277 12.986 81.3884 12.6181 80.5683 12.5036C79.7483 12.3892 79.0327 12.568 78.4216 13.04C77.8223 13.5137 77.4605 14.1963 77.3361 15.0876C77.2117 15.979 77.3728 16.7345 77.8194 17.3542C78.2779 17.9755 78.9172 18.3434 79.7373 18.4579Z" fill="#2F80ED"/>
<path d="M92.0979 22.7935C91.7801 22.9174 91.422 22.9715 91.0234 22.9557C90.6362 22.9436 90.2429 22.8727 89.8434 22.7431C88.839 22.4171 88.148 21.9027 87.7705 21.1998C87.3931 20.497 87.3673 19.6433 87.6933 18.6389L90.3548 10.438L92.4949 11.1325L91.8171 13.2213L94.2653 14.0159L93.7097 15.728L91.2614 14.9334L89.8501 19.2821C89.7056 19.7272 89.7029 20.1049 89.842 20.4149C89.9962 20.7173 90.273 20.9333 90.6725 21.0629C91.1519 21.2185 91.5921 21.2226 91.9932 21.0752L92.0979 22.7935Z" fill="#2F80ED"/>
<path d="M97.0864 25.8106C96.1988 25.3588 95.4973 24.7661 94.982 24.0326C94.4667 23.299 94.1799 22.5 94.1217 21.6356C94.069 20.7604 94.2576 19.9004 94.6876 19.0555C95.1177 18.2107 95.6993 17.5574 96.4324 17.0958C97.1656 16.6341 97.975 16.3931 98.8607 16.3726C99.757 16.3575 100.654 16.5786 101.553 17.0359C102.398 17.4659 103.048 18.0126 103.505 18.676C103.973 19.3448 104.203 20.0817 104.198 20.8866L102.2 21.0011C102.156 20.4802 101.995 20.0283 101.719 19.6453C101.459 19.257 101.11 18.9513 100.671 18.7281C99.9226 18.3471 99.1771 18.2773 98.4348 18.5189C97.6979 18.7497 97.1226 19.2716 96.7089 20.0843C96.2952 20.8971 96.2038 21.6719 96.4346 22.4088C96.6816 23.1405 97.1848 23.6995 97.9441 24.086C98.3825 24.3092 98.8326 24.4171 99.2941 24.4096C99.7719 24.397 100.234 24.2554 100.682 23.9849L101.765 25.667C101.106 26.14 100.367 26.3896 99.5454 26.4159C98.7403 26.437 97.9206 26.2352 97.0864 25.8106Z" fill="#2F80ED"/>
<path d="M112.381 24.0705C113.329 24.8257 113.869 25.7082 114.001 26.7181C114.132 27.7279 113.764 28.7772 112.897 29.866L109.465 34.1742L107.705 32.7723L110.957 28.6894C111.481 28.0323 111.718 27.4162 111.67 26.841C111.63 26.2563 111.323 25.736 110.751 25.2799C110.103 24.764 109.435 24.5536 108.745 24.6487C108.063 24.7345 107.43 25.1434 106.847 25.8755L103.819 29.6768L102.059 28.2749L110.381 17.8283L112.141 19.2302L109.113 23.0316C109.65 22.9536 110.194 23.0031 110.744 23.18C111.31 23.355 111.856 23.6518 112.381 24.0705Z" fill="#2F80ED"/>
<path d="M127.036 40.7632L116.814 42.9722L115.469 41.0796L120.915 32.1511L122.271 34.0584L118.192 40.6235L125.785 39.0027L127.036 40.7632Z" fill="#2F80ED"/>
<path d="M128.202 43.1335L129.23 45.1349L120.68 49.5267L119.652 47.5253L128.202 43.1335ZM130.129 43.4185C129.942 43.0556 129.898 42.6938 129.996 42.3331C130.105 41.967 130.33 41.6962 130.672 41.5207C131.013 41.3453 131.359 41.3227 131.709 41.4531C132.07 41.578 132.344 41.8219 132.53 42.1848C132.717 42.5477 132.761 42.9095 132.663 43.2702C132.576 43.6253 132.366 43.8879 132.036 44.0579C131.683 44.2388 131.321 44.2696 130.95 44.1502C130.594 44.036 130.321 43.7921 130.129 43.4185Z" fill="#2F80ED"/>
<path d="M137.701 56.8436L124.998 60.9664L124.331 58.9119L125.512 58.5285C124.964 58.3155 124.496 57.9816 124.108 57.5269C123.725 57.0837 123.431 56.5482 123.227 55.9204C122.942 55.0416 122.879 54.1853 123.037 53.3517C123.199 52.5295 123.569 51.8038 124.147 51.1747C124.737 50.5418 125.494 50.0754 126.418 49.7753C127.343 49.4753 128.224 49.4102 129.061 49.58C129.898 49.7498 130.624 50.1199 131.238 50.6902C131.856 51.2719 132.307 52.0022 132.593 52.8811C132.789 53.486 132.866 54.0729 132.823 54.6418C132.781 55.2107 132.612 55.7387 132.316 56.2259L137.007 54.7035L137.701 56.8436ZM125.143 55.5827C125.309 56.0963 125.574 56.5216 125.935 56.8584C126.308 57.1915 126.751 57.4075 127.262 57.5064C127.774 57.6054 128.315 57.5622 128.885 57.377C129.456 57.1918 129.919 56.909 130.275 56.5285C130.631 56.148 130.857 55.7153 130.952 55.2303C131.058 54.7416 131.028 54.2405 130.861 53.7269C130.694 53.2132 130.425 52.7899 130.052 52.4567C129.69 52.1199 129.253 51.9021 128.742 51.8031C128.23 51.7042 127.689 51.7473 127.118 51.9326C126.548 52.1178 126.084 52.4006 125.729 52.7811C125.373 53.1615 125.141 53.5961 125.035 54.0848C124.94 54.5698 124.976 55.0691 125.143 55.5827Z" fill="#2F80ED"/>
<path d="M127.705 67.3206C127.817 68.3585 128.257 69.186 129.024 69.8029L127.774 71.1333C127.216 70.7714 126.77 70.2765 126.436 69.6488C126.103 69.0211 125.891 68.2956 125.802 67.4725C125.688 66.4226 125.797 65.4754 126.128 64.6308C126.459 63.7863 126.97 63.1032 127.662 62.5816C128.367 62.0707 129.191 61.7642 130.133 61.662C131.064 61.5612 131.921 61.6795 132.706 62.0169C133.505 62.3649 134.152 62.8862 134.65 63.5806C135.149 64.2869 135.45 65.1114 135.552 66.0538C135.649 66.9486 135.54 67.7812 135.225 68.5516C134.923 69.3326 134.432 69.9773 133.751 70.4857C133.082 70.9927 132.264 71.2986 131.297 71.4033L129.073 64.2393C128.548 64.5254 128.17 64.9345 127.938 65.4666C127.706 65.9987 127.628 66.6167 127.705 67.3206ZM133.762 66.2477C133.673 65.4246 133.332 64.7856 132.74 64.3307C132.149 63.8879 131.4 63.7155 130.493 63.8138L130.475 63.8157L132.099 69.1076C132.667 68.8892 133.104 68.522 133.41 68.006C133.717 67.5019 133.835 66.9158 133.762 66.2477Z" fill="#2F80ED"/>
</svg>
