<svg width="212" height="191" viewBox="0 0 212 191" fill="none" xmlns="http://www.w3.org/2000/svg">
<path d="M198.404 23.1257C197.942 22.1484 197.234 21.3056 196.103 20.8164C195.128 20.3407 194.153 19.865 193.171 19.4668C191.284 18.6771 189.307 18.0357 187.353 18.0209C184.848 18.036 182.344 18.0511 179.84 18.0662C176.009 18.0434 172.094 18.0913 168.264 18.0684C165.837 18.0904 163.41 18.1123 160.984 18.1342C156.836 18.1617 152.61 18.1824 148.462 18.2098C145.486 18.2617 142.593 18.2429 139.616 18.2947C136.484 18.333 133.352 18.3713 130.305 18.3389C125.296 18.3692 120.288 18.3994 115.201 18.4229C112.542 18.4244 109.882 18.426 107.216 18.505C104.867 18.5337 102.518 18.5624 100.169 18.5911C97.82 18.6198 95.471 18.6486 93.122 18.6773C76.7632 18.8076 60.4044 18.9379 43.9748 18.9839C39.3611 18.9706 34.6631 19.028 30.0494 19.0148C28.4058 19.0271 26.8262 19.2012 25.3175 19.4596C23.8864 19.7248 22.5194 20.1517 21.1523 20.5786C20.1869 20.8845 19.3633 21.359 18.6172 21.8402C16.4499 23.3683 15.5547 25.5541 15.5941 28.6806C15.8451 61.572 16.0894 94.541 16.3404 127.432C16.3065 127.82 16.357 128.137 16.4007 128.531L16.394 128.608C16.4882 129.319 16.5892 129.953 16.7746 130.515C16.7746 130.515 16.7679 130.593 16.8455 130.6C16.9736 130.923 17.0309 131.162 17.1658 131.408C17.3008 131.654 17.4356 131.9 17.5773 132.069C17.5773 132.069 17.5773 132.069 17.6482 132.153C17.7898 132.322 17.9315 132.49 17.9956 132.652C18.0664 132.736 18.0664 132.736 18.1372 132.821C18.2789 132.989 18.4274 133.08 18.4915 133.242C18.5623 133.326 18.5624 133.326 18.6332 133.411C18.7749 133.579 18.9942 133.755 19.2135 133.93C19.4328 134.105 19.6521 134.281 19.8782 134.378C19.9558 134.385 19.9491 134.463 20.0267 134.469C20.1752 134.561 20.4012 134.658 20.6273 134.756C20.7049 134.763 20.7758 134.847 20.8534 134.854C21.0795 134.952 21.2279 135.043 21.454 135.141C21.5317 135.148 21.6025 135.232 21.6802 135.239C21.9839 135.343 22.2099 135.441 22.5137 135.546C24.9501 136.306 27.4206 136.678 29.9957 136.747C30.3062 136.774 30.6166 136.801 30.9339 136.751C51.4474 136.516 71.9472 136.435 92.4607 136.2C93.5542 136.218 94.3237 136.363 94.6643 136.939C94.6643 136.939 94.6575 137.017 94.7352 137.024C94.806 137.108 94.7993 137.186 94.8633 137.347C94.8566 137.425 94.8565 137.425 94.9274 137.509C94.9206 137.587 94.9847 137.748 94.9779 137.826L94.9711 137.903C94.9575 138.058 94.944 138.213 94.9237 138.446C94.9169 138.523 94.9169 138.523 94.9101 138.601C94.9033 138.678 94.8897 138.833 94.9606 138.917C94.9538 138.995 95.0246 139.079 95.0111 139.234C95.911 142.358 96.8955 145.411 97.7955 148.534C100.573 157.912 103.351 167.29 106.283 176.681C106.347 176.843 106.411 177.005 106.475 177.166C107.008 178.228 107.936 179.246 108.631 180.244C108.989 179.729 109.424 179.22 109.782 178.705C110.042 178.415 110.225 178.119 110.407 177.823C110.681 177.378 110.87 177.004 111.066 176.553C112.982 169.85 114.891 163.225 116.807 156.522C118.514 150.425 120.221 144.328 121.927 138.232C122.394 136.477 123.062 135.989 124.783 135.983C144.895 135.869 165.007 135.755 185.119 135.64C186.762 135.628 188.328 135.609 189.992 135.364C190.232 135.307 190.387 135.321 190.627 135.263C191.579 135.113 192.46 134.877 193.425 134.571C194.63 134.208 195.609 133.747 196.433 133.273C198.995 131.701 200.137 129.381 200.067 125.705C200.071 122.973 199.998 120.234 200.003 117.502C199.884 109.918 199.843 102.341 199.802 94.7646C199.665 72.189 199.444 49.684 199.385 27.1152C199.125 25.6091 198.93 24.2648 198.404 23.1257Z" fill="white"/>
<path d="M197.707 19.4732C194.792 17.0321 191.218 15.8606 187.62 15.8582C160.87 15.8601 134.092 16.1719 107.328 16.3287C81.8907 16.5235 56.3755 16.7116 30.9379 16.9064C27.7283 16.9379 24.5963 16.9762 21.3626 18.1767C16.5154 19.9387 13.7332 23.1306 13.5118 28.3422C13.5013 29.3563 13.4065 30.441 13.4736 31.4619C13.5944 51.5377 13.6376 71.6067 13.7584 91.6825C13.872 103.794 14.1408 115.919 14.2545 128.031C14.3104 131.861 16.2535 134.686 19.5536 136.302C22.324 137.715 25.2058 138.748 28.4931 138.724C49.2327 138.586 70.0498 138.456 90.7961 138.241C92.2845 138.215 92.8716 138.656 93.2862 140.176C96.5658 151.862 99.9162 163.632 103.358 175.254C103.9 177.097 104.676 178.961 105.627 180.606C107.054 183.073 109.875 183.007 111.334 180.636C112.155 179.303 112.756 177.794 113.196 176.349C116.511 164.381 119.826 152.414 122.993 140.355C123.459 138.6 123.986 137.943 125.94 137.958C146.595 137.891 167.187 137.663 187.848 137.519C191.058 137.487 193.968 136.415 196.749 135.018C200.024 133.353 201.911 130.551 201.94 126.65C201.907 125.242 202.022 123.925 202.066 122.523C201.955 103.229 201.922 83.9415 201.733 64.6405C201.667 51.9866 201.361 39.3898 201.218 26.7291C201.08 23.8283 200.042 21.3952 197.707 19.4732ZM199.152 27.0949C199.211 49.6637 199.355 72.1618 199.569 94.7442C199.61 102.321 199.729 109.905 199.77 117.482C199.765 120.214 199.839 122.953 199.834 125.685C199.904 129.361 198.762 131.681 196.2 133.253C195.369 133.805 194.32 134.181 193.192 134.551C192.304 134.864 191.346 135.092 190.394 135.243C190.154 135.3 189.999 135.287 189.76 135.344C188.173 135.595 186.53 135.608 184.886 135.62C164.774 135.734 144.656 135.926 124.551 135.963C122.829 135.968 122.161 136.456 121.694 138.211C119.988 144.308 118.359 150.411 116.575 156.501C114.658 163.204 112.742 169.907 110.833 176.533C110.715 176.991 110.441 177.435 110.174 177.802C109.992 178.099 109.732 178.388 109.55 178.685C109.114 179.193 108.756 179.708 108.398 180.223C107.71 179.148 106.698 178.201 106.243 177.146C106.179 176.984 106.115 176.823 106.051 176.661C103.195 167.276 100.418 157.898 97.5627 148.514C96.6627 145.39 95.6783 142.337 94.7784 139.214C94.7851 139.136 94.7143 139.052 94.7279 138.897C94.7347 138.819 94.6705 138.658 94.6773 138.58C94.6841 138.503 94.6841 138.503 94.6908 138.425C94.7112 138.193 94.7247 138.038 94.7383 137.883L94.7451 137.805C94.7586 137.65 94.6878 137.566 94.6946 137.489C94.7014 137.411 94.7082 137.334 94.6305 137.327C94.5597 137.243 94.5665 137.165 94.5024 137.003C94.5024 137.003 94.5092 136.926 94.4315 136.919C94.0909 136.343 93.3283 136.12 92.228 136.18C71.7213 136.338 51.2146 136.495 30.7011 136.731C30.3906 136.703 30.0802 136.676 29.7629 136.727C27.1878 136.657 24.7174 136.285 22.2809 135.525C21.9772 135.421 21.6734 135.316 21.4474 135.218C21.3697 135.212 21.2989 135.127 21.2213 135.12C20.9952 135.023 20.8467 134.932 20.6206 134.834C20.543 134.827 20.4722 134.743 20.3946 134.736C20.1685 134.638 20.02 134.547 19.7939 134.449C19.7163 134.442 19.7231 134.365 19.6455 134.358C19.4262 134.183 19.2001 134.085 18.9808 133.909C18.7614 133.734 18.6197 133.566 18.4004 133.39C18.3228 133.383 18.3296 133.306 18.2588 133.222C18.1171 133.053 17.9686 132.962 17.9045 132.8C17.8337 132.716 17.8336 132.716 17.7628 132.632C17.6211 132.463 17.4794 132.295 17.4154 132.133C17.4154 132.133 17.4154 132.133 17.3445 132.049C17.0747 131.557 16.8049 131.065 16.6195 130.502C16.6195 130.502 16.6263 130.424 16.5487 130.418C16.3632 129.855 16.2622 129.221 16.1679 128.51L16.1747 128.433C16.1242 128.116 16.1581 127.729 16.1144 127.335C15.8634 94.4432 15.6191 61.4742 15.368 28.5827C15.3287 25.4563 16.3015 23.2772 18.3912 21.7424C19.1373 21.2611 19.9541 20.8641 20.9263 20.4808C22.3001 19.9763 23.6604 19.6269 25.0915 19.3617C26.607 19.0259 28.1798 18.9293 29.8235 18.9169C34.5147 18.937 39.1352 18.8727 43.8265 18.8928C60.1785 18.84 76.5372 18.7097 92.9736 18.5862C95.3226 18.5575 97.6716 18.5288 100.021 18.5001C102.37 18.4714 104.719 18.4426 107.068 18.4139C114.736 18.3821 122.411 18.2728 130.156 18.2478C133.288 18.2095 136.42 18.1713 139.468 18.2037C142.445 18.1518 145.337 18.1706 148.314 18.1188C152.462 18.0913 156.687 18.0706 160.835 18.0431C163.262 18.0212 165.689 17.9993 168.115 17.9774C171.946 18.0002 175.861 17.9524 179.692 17.9752C182.196 17.9601 184.7 17.9449 187.204 17.9298C189.081 17.9378 191.058 18.5793 193.022 19.3757C194.004 19.7739 194.973 20.3271 195.955 20.7253C197.078 21.2921 197.794 22.0573 198.256 23.0346C198.93 24.2648 199.126 25.6091 199.152 27.0949Z" fill="#3A0D1F"/>
</svg>
