<svg width="30" height="30" viewBox="0 0 30 30" fill="none" xmlns="http://www.w3.org/2000/svg">
<g clip-path="url(#clip0_153_2321)">
<path d="M25 3.75C26.3808 3.75 27.5 4.86929 27.5 6.25V23.75C27.5 25.1308 26.3808 26.25 25 26.25H5C3.61929 26.25 2.5 25.1308 2.5 23.75V6.25C2.5 4.86929 3.61929 3.75 5 3.75H25ZM20 6.25H10V23.75H20V6.25ZM25 21.25H22.5V23.75H25V21.25ZM7.5 21.25H5V23.75H7.5V21.25ZM25 16.25H22.5V18.75H25V16.25ZM7.5 16.25H5V18.75H7.5V16.25ZM25 11.25H22.5V13.75H25V11.25ZM7.5 11.25H5V13.75H7.5V11.25ZM25 6.25H22.5V8.75H25V6.25ZM7.5 6.25H5V8.75H7.5V6.25Z" fill="#A7A9AF"/>
</g>
<defs>
<clipPath id="clip0_153_2321">
<rect width="30" height="30" fill="white"/>
</clipPath>
</defs>
</svg>
