<svg width="184" height="34" viewBox="0 0 184 34" fill="none" xmlns="http://www.w3.org/2000/svg">
<mask id="path-1-outside-1_404_966" maskUnits="userSpaceOnUse" x="42" y="8" width="142" height="18" fill="black">
<rect fill="white" x="42" y="8" width="142" height="18"/>
<path d="M45.217 22.8248C43.739 21.3747 43 19.59 43 17.4706C43 15.3512 43.739 13.5664 45.217 12.1163C46.7089 10.6662 48.5495 9.94118 50.7386 9.94118C52.9277 9.94118 54.7612 10.6662 56.2392 12.1163C57.7312 13.5664 58.4771 15.3512 58.4771 17.4706C58.4771 19.59 57.7312 21.3747 56.2392 22.8248C54.7612 24.2749 52.9277 25 50.7386 25C48.5495 25 46.7089 24.2749 45.217 22.8248ZM47.8523 14.4379C47.0715 15.2606 46.681 16.2715 46.681 17.4706C46.681 18.6697 47.0715 19.6806 47.8523 20.5033C48.6331 21.3259 49.5952 21.7373 50.7386 21.7373C51.8819 21.7373 52.844 21.3259 53.6248 20.5033C54.4057 19.6806 54.7961 18.6697 54.7961 17.4706C54.7961 16.2715 54.4057 15.2606 53.6248 14.4379C52.844 13.6153 51.8819 13.2039 50.7386 13.2039C49.5952 13.2039 48.6331 13.6153 47.8523 14.4379Z"/>
<path d="M67.1528 13.7059C68.324 13.7059 69.2582 14.1172 69.9554 14.9399C70.6665 15.7486 71.0221 16.8083 71.0221 18.119V24.7908H67.6757V18.7464C67.6757 18.1468 67.4874 17.6658 67.1109 17.3033C66.7345 16.9268 66.2604 16.7386 65.6887 16.7386C65.0334 16.7386 64.5035 16.9268 64.0992 17.3033C63.6948 17.6658 63.4926 18.1468 63.4926 18.7464V24.7908H60.1462V13.915H63.4926V16.634C63.7855 15.7277 64.2526 15.0166 64.894 14.5007C65.5353 13.9708 66.2883 13.7059 67.1528 13.7059Z"/>
<path d="M76.3603 24.7908H73.0139V9.31373H76.3603V24.7908Z"/>
<path d="M78.1332 10.9869C78.1332 10.4431 78.3284 9.97603 78.7188 9.58562C79.1092 9.19521 79.5763 9 80.1201 9C80.6639 9 81.131 9.19521 81.5214 9.58562C81.9118 9.97603 82.107 10.4431 82.107 10.9869C82.107 11.5168 81.9118 11.9839 81.5214 12.3882C81.131 12.7786 80.6639 12.9739 80.1201 12.9739C79.5763 12.9739 79.1092 12.7786 78.7188 12.3882C78.3284 11.9839 78.1332 11.5168 78.1332 10.9869ZM81.7933 24.7908H78.4469V13.915H81.7933V24.7908Z"/>
<path d="M90.8864 13.7059C92.0577 13.7059 92.9919 14.1172 93.6891 14.9399C94.4002 15.7486 94.7557 16.8083 94.7557 18.119V24.7908H91.4093V18.7464C91.4093 18.1468 91.2211 17.6658 90.8446 17.3033C90.4681 16.9268 89.9941 16.7386 89.4224 16.7386C88.767 16.7386 88.2372 16.9268 87.8328 17.3033C87.4285 17.6658 87.2263 18.1468 87.2263 18.7464V24.7908H83.8799V13.915H87.2263V16.634C87.5191 15.7277 87.9862 15.0166 88.6276 14.5007C89.269 13.9708 90.0219 13.7059 90.8864 13.7059Z"/>
<path d="M102.081 13.7059C103.963 13.7059 105.462 14.3891 106.578 15.7556C107.693 17.122 108.07 18.7255 107.707 20.566H99.8221C100.017 21.054 100.331 21.4444 100.763 21.7373C101.209 22.0161 101.718 22.1556 102.29 22.1556C103.308 22.1556 104.068 21.7512 104.57 20.9425L107.289 22.1974C106.773 23.0479 106.076 23.7312 105.197 24.2471C104.319 24.749 103.315 25 102.185 25C100.526 25 99.1319 24.4632 98.0024 23.3895C96.887 22.302 96.3292 20.9564 96.3292 19.3529C96.3292 17.7495 96.88 16.4109 97.9815 15.3373C99.0831 14.2497 100.45 13.7059 102.081 13.7059ZM102.081 16.5503C101.593 16.5503 101.154 16.6898 100.763 16.9686C100.373 17.2336 100.073 17.5961 99.8639 18.0562H104.319C103.914 17.0523 103.168 16.5503 102.081 16.5503Z"/>
<path d="M115.574 20.8797L119.172 20.1477C119.423 21.3468 120.217 21.9464 121.556 21.9464C122.142 21.9464 122.616 21.8139 122.978 21.549C123.355 21.2841 123.543 20.9634 123.543 20.5869C123.543 20.2802 123.404 20.0222 123.125 19.8131C122.846 19.6039 122.476 19.4366 122.016 19.3111C121.57 19.1856 121.075 19.0601 120.531 18.9346C119.987 18.7952 119.444 18.6209 118.9 18.4118C118.356 18.2026 117.854 17.9447 117.394 17.6379C116.948 17.3312 116.585 16.9059 116.306 16.3621C116.027 15.8183 115.888 15.1769 115.888 14.4379C115.888 13.1551 116.425 12.0885 117.499 11.2379C118.572 10.3734 119.89 9.94118 121.451 9.94118C123.027 9.94118 124.317 10.3176 125.321 11.0706C126.339 11.8235 126.938 12.8205 127.119 14.0614L123.522 14.7935C123.411 14.2357 123.167 13.7965 122.79 13.4758C122.414 13.1551 121.926 12.9948 121.326 12.9948C120.796 12.9948 120.371 13.1133 120.05 13.3503C119.729 13.5734 119.569 13.8662 119.569 14.2288C119.569 14.5634 119.757 14.8423 120.134 15.0654C120.51 15.2885 120.984 15.4558 121.556 15.5673C122.128 15.6789 122.741 15.8462 123.397 16.0693C124.052 16.2924 124.665 16.5503 125.237 16.8431C125.809 17.1359 126.283 17.5961 126.659 18.2235C127.036 18.851 127.224 19.6039 127.224 20.4824C127.224 21.7651 126.666 22.8388 125.551 23.7033C124.449 24.5678 123.083 25 121.451 25C119.834 25 118.495 24.6235 117.436 23.8706C116.39 23.1176 115.77 22.1207 115.574 20.8797Z"/>
<path d="M130.253 23.3895C129.138 22.302 128.58 20.9564 128.58 19.3529C128.58 17.7495 129.138 16.4109 130.253 15.3373C131.383 14.2497 132.777 13.7059 134.436 13.7059C135.594 13.7059 136.639 14.0126 137.574 14.6261C138.508 15.2257 139.205 16.0832 139.665 17.1987L136.611 18.2444C136.179 17.2545 135.454 16.7595 134.436 16.7595C133.753 16.7595 133.181 17.0105 132.721 17.5124C132.275 18.0004 132.052 18.6139 132.052 19.3529C132.052 20.0919 132.275 20.7124 132.721 21.2144C133.181 21.7024 133.753 21.9464 134.436 21.9464C135.454 21.9464 136.179 21.4514 136.611 20.4614L139.665 21.5072C139.205 22.6227 138.508 23.4871 137.574 24.1007C136.639 24.7002 135.594 25 134.436 25C132.777 25 131.383 24.4632 130.253 23.3895Z"/>
<path d="M148.137 13.7059C149.308 13.7059 150.243 14.1172 150.94 14.9399C151.651 15.7486 152.007 16.8083 152.007 18.119V24.7908H148.66V18.7464C148.66 18.1468 148.472 17.6658 148.095 17.3033C147.719 16.9268 147.245 16.7386 146.673 16.7386C146.018 16.7386 145.488 16.9268 145.084 17.3033C144.679 17.6658 144.477 18.1468 144.477 18.7464V24.7908H141.131V9.31373H144.477V16.634C144.77 15.7277 145.237 15.0166 145.878 14.5007C146.52 13.9708 147.273 13.7059 148.137 13.7059Z"/>
<path d="M155.253 23.3895C154.138 22.302 153.58 20.9564 153.58 19.3529C153.58 17.7495 154.138 16.4109 155.253 15.3373C156.383 14.2497 157.777 13.7059 159.436 13.7059C161.096 13.7059 162.483 14.2497 163.598 15.3373C164.728 16.4109 165.292 17.7495 165.292 19.3529C165.292 20.9564 164.728 22.302 163.598 23.3895C162.483 24.4632 161.096 25 159.436 25C157.777 25 156.383 24.4632 155.253 23.3895ZM157.721 17.5124C157.275 18.0004 157.052 18.6139 157.052 19.3529C157.052 20.0919 157.275 20.7124 157.721 21.2144C158.181 21.7024 158.753 21.9464 159.436 21.9464C160.119 21.9464 160.684 21.7024 161.13 21.2144C161.591 20.7124 161.821 20.0919 161.821 19.3529C161.821 18.6139 161.591 18.0004 161.13 17.5124C160.684 17.0105 160.119 16.7595 159.436 16.7595C158.753 16.7595 158.181 17.0105 157.721 17.5124Z"/>
<path d="M168.223 23.3895C167.108 22.302 166.55 20.9564 166.55 19.3529C166.55 17.7495 167.108 16.4109 168.223 15.3373C169.352 14.2497 170.747 13.7059 172.406 13.7059C174.065 13.7059 175.453 14.2497 176.568 15.3373C177.698 16.4109 178.262 17.7495 178.262 19.3529C178.262 20.9564 177.698 22.302 176.568 23.3895C175.453 24.4632 174.065 25 172.406 25C170.747 25 169.352 24.4632 168.223 23.3895ZM170.691 17.5124C170.245 18.0004 170.022 18.6139 170.022 19.3529C170.022 20.0919 170.245 20.7124 170.691 21.2144C171.151 21.7024 171.723 21.9464 172.406 21.9464C173.089 21.9464 173.654 21.7024 174.1 21.2144C174.56 20.7124 174.79 20.0919 174.79 19.3529C174.79 18.6139 174.56 18.0004 174.1 17.5124C173.654 17.0105 173.089 16.7595 172.406 16.7595C171.723 16.7595 171.151 17.0105 170.691 17.5124Z"/>
<path d="M183.284 24.7908H179.938V9.31373H183.284V24.7908Z"/>
</mask>
<path d="M45.217 22.8248C43.739 21.3747 43 19.59 43 17.4706C43 15.3512 43.739 13.5664 45.217 12.1163C46.7089 10.6662 48.5495 9.94118 50.7386 9.94118C52.9277 9.94118 54.7612 10.6662 56.2392 12.1163C57.7312 13.5664 58.4771 15.3512 58.4771 17.4706C58.4771 19.59 57.7312 21.3747 56.2392 22.8248C54.7612 24.2749 52.9277 25 50.7386 25C48.5495 25 46.7089 24.2749 45.217 22.8248ZM47.8523 14.4379C47.0715 15.2606 46.681 16.2715 46.681 17.4706C46.681 18.6697 47.0715 19.6806 47.8523 20.5033C48.6331 21.3259 49.5952 21.7373 50.7386 21.7373C51.8819 21.7373 52.844 21.3259 53.6248 20.5033C54.4057 19.6806 54.7961 18.6697 54.7961 17.4706C54.7961 16.2715 54.4057 15.2606 53.6248 14.4379C52.844 13.6153 51.8819 13.2039 50.7386 13.2039C49.5952 13.2039 48.6331 13.6153 47.8523 14.4379Z" fill="#2F80ED"/>
<path d="M67.1528 13.7059C68.324 13.7059 69.2582 14.1172 69.9554 14.9399C70.6665 15.7486 71.0221 16.8083 71.0221 18.119V24.7908H67.6757V18.7464C67.6757 18.1468 67.4874 17.6658 67.1109 17.3033C66.7345 16.9268 66.2604 16.7386 65.6887 16.7386C65.0334 16.7386 64.5035 16.9268 64.0992 17.3033C63.6948 17.6658 63.4926 18.1468 63.4926 18.7464V24.7908H60.1462V13.915H63.4926V16.634C63.7855 15.7277 64.2526 15.0166 64.894 14.5007C65.5353 13.9708 66.2883 13.7059 67.1528 13.7059Z" fill="#2F80ED"/>
<path d="M76.3603 24.7908H73.0139V9.31373H76.3603V24.7908Z" fill="#2F80ED"/>
<path d="M78.1332 10.9869C78.1332 10.4431 78.3284 9.97603 78.7188 9.58562C79.1092 9.19521 79.5763 9 80.1201 9C80.6639 9 81.131 9.19521 81.5214 9.58562C81.9118 9.97603 82.107 10.4431 82.107 10.9869C82.107 11.5168 81.9118 11.9839 81.5214 12.3882C81.131 12.7786 80.6639 12.9739 80.1201 12.9739C79.5763 12.9739 79.1092 12.7786 78.7188 12.3882C78.3284 11.9839 78.1332 11.5168 78.1332 10.9869ZM81.7933 24.7908H78.4469V13.915H81.7933V24.7908Z" fill="#2F80ED"/>
<path d="M90.8864 13.7059C92.0577 13.7059 92.9919 14.1172 93.6891 14.9399C94.4002 15.7486 94.7557 16.8083 94.7557 18.119V24.7908H91.4093V18.7464C91.4093 18.1468 91.2211 17.6658 90.8446 17.3033C90.4681 16.9268 89.9941 16.7386 89.4224 16.7386C88.767 16.7386 88.2372 16.9268 87.8328 17.3033C87.4285 17.6658 87.2263 18.1468 87.2263 18.7464V24.7908H83.8799V13.915H87.2263V16.634C87.5191 15.7277 87.9862 15.0166 88.6276 14.5007C89.269 13.9708 90.0219 13.7059 90.8864 13.7059Z" fill="#2F80ED"/>
<path d="M102.081 13.7059C103.963 13.7059 105.462 14.3891 106.578 15.7556C107.693 17.122 108.07 18.7255 107.707 20.566H99.8221C100.017 21.054 100.331 21.4444 100.763 21.7373C101.209 22.0161 101.718 22.1556 102.29 22.1556C103.308 22.1556 104.068 21.7512 104.57 20.9425L107.289 22.1974C106.773 23.0479 106.076 23.7312 105.197 24.2471C104.319 24.749 103.315 25 102.185 25C100.526 25 99.1319 24.4632 98.0024 23.3895C96.887 22.302 96.3292 20.9564 96.3292 19.3529C96.3292 17.7495 96.88 16.4109 97.9815 15.3373C99.0831 14.2497 100.45 13.7059 102.081 13.7059ZM102.081 16.5503C101.593 16.5503 101.154 16.6898 100.763 16.9686C100.373 17.2336 100.073 17.5961 99.8639 18.0562H104.319C103.914 17.0523 103.168 16.5503 102.081 16.5503Z" fill="#2F80ED"/>
<path d="M115.574 20.8797L119.172 20.1477C119.423 21.3468 120.217 21.9464 121.556 21.9464C122.142 21.9464 122.616 21.8139 122.978 21.549C123.355 21.2841 123.543 20.9634 123.543 20.5869C123.543 20.2802 123.404 20.0222 123.125 19.8131C122.846 19.6039 122.476 19.4366 122.016 19.3111C121.57 19.1856 121.075 19.0601 120.531 18.9346C119.987 18.7952 119.444 18.6209 118.9 18.4118C118.356 18.2026 117.854 17.9447 117.394 17.6379C116.948 17.3312 116.585 16.9059 116.306 16.3621C116.027 15.8183 115.888 15.1769 115.888 14.4379C115.888 13.1551 116.425 12.0885 117.499 11.2379C118.572 10.3734 119.89 9.94118 121.451 9.94118C123.027 9.94118 124.317 10.3176 125.321 11.0706C126.339 11.8235 126.938 12.8205 127.119 14.0614L123.522 14.7935C123.411 14.2357 123.167 13.7965 122.79 13.4758C122.414 13.1551 121.926 12.9948 121.326 12.9948C120.796 12.9948 120.371 13.1133 120.05 13.3503C119.729 13.5734 119.569 13.8662 119.569 14.2288C119.569 14.5634 119.757 14.8423 120.134 15.0654C120.51 15.2885 120.984 15.4558 121.556 15.5673C122.128 15.6789 122.741 15.8462 123.397 16.0693C124.052 16.2924 124.665 16.5503 125.237 16.8431C125.809 17.1359 126.283 17.5961 126.659 18.2235C127.036 18.851 127.224 19.6039 127.224 20.4824C127.224 21.7651 126.666 22.8388 125.551 23.7033C124.449 24.5678 123.083 25 121.451 25C119.834 25 118.495 24.6235 117.436 23.8706C116.39 23.1176 115.77 22.1207 115.574 20.8797Z" fill="#2F80ED"/>
<path d="M130.253 23.3895C129.138 22.302 128.58 20.9564 128.58 19.3529C128.58 17.7495 129.138 16.4109 130.253 15.3373C131.383 14.2497 132.777 13.7059 134.436 13.7059C135.594 13.7059 136.639 14.0126 137.574 14.6261C138.508 15.2257 139.205 16.0832 139.665 17.1987L136.611 18.2444C136.179 17.2545 135.454 16.7595 134.436 16.7595C133.753 16.7595 133.181 17.0105 132.721 17.5124C132.275 18.0004 132.052 18.6139 132.052 19.3529C132.052 20.0919 132.275 20.7124 132.721 21.2144C133.181 21.7024 133.753 21.9464 134.436 21.9464C135.454 21.9464 136.179 21.4514 136.611 20.4614L139.665 21.5072C139.205 22.6227 138.508 23.4871 137.574 24.1007C136.639 24.7002 135.594 25 134.436 25C132.777 25 131.383 24.4632 130.253 23.3895Z" fill="#2F80ED"/>
<path d="M148.137 13.7059C149.308 13.7059 150.243 14.1172 150.94 14.9399C151.651 15.7486 152.007 16.8083 152.007 18.119V24.7908H148.66V18.7464C148.66 18.1468 148.472 17.6658 148.095 17.3033C147.719 16.9268 147.245 16.7386 146.673 16.7386C146.018 16.7386 145.488 16.9268 145.084 17.3033C144.679 17.6658 144.477 18.1468 144.477 18.7464V24.7908H141.131V9.31373H144.477V16.634C144.77 15.7277 145.237 15.0166 145.878 14.5007C146.52 13.9708 147.273 13.7059 148.137 13.7059Z" fill="#2F80ED"/>
<path d="M155.253 23.3895C154.138 22.302 153.58 20.9564 153.58 19.3529C153.58 17.7495 154.138 16.4109 155.253 15.3373C156.383 14.2497 157.777 13.7059 159.436 13.7059C161.096 13.7059 162.483 14.2497 163.598 15.3373C164.728 16.4109 165.292 17.7495 165.292 19.3529C165.292 20.9564 164.728 22.302 163.598 23.3895C162.483 24.4632 161.096 25 159.436 25C157.777 25 156.383 24.4632 155.253 23.3895ZM157.721 17.5124C157.275 18.0004 157.052 18.6139 157.052 19.3529C157.052 20.0919 157.275 20.7124 157.721 21.2144C158.181 21.7024 158.753 21.9464 159.436 21.9464C160.119 21.9464 160.684 21.7024 161.13 21.2144C161.591 20.7124 161.821 20.0919 161.821 19.3529C161.821 18.6139 161.591 18.0004 161.13 17.5124C160.684 17.0105 160.119 16.7595 159.436 16.7595C158.753 16.7595 158.181 17.0105 157.721 17.5124Z" fill="#2F80ED"/>
<path d="M168.223 23.3895C167.108 22.302 166.55 20.9564 166.55 19.3529C166.55 17.7495 167.108 16.4109 168.223 15.3373C169.352 14.2497 170.747 13.7059 172.406 13.7059C174.065 13.7059 175.453 14.2497 176.568 15.3373C177.698 16.4109 178.262 17.7495 178.262 19.3529C178.262 20.9564 177.698 22.302 176.568 23.3895C175.453 24.4632 174.065 25 172.406 25C170.747 25 169.352 24.4632 168.223 23.3895ZM170.691 17.5124C170.245 18.0004 170.022 18.6139 170.022 19.3529C170.022 20.0919 170.245 20.7124 170.691 21.2144C171.151 21.7024 171.723 21.9464 172.406 21.9464C173.089 21.9464 173.654 21.7024 174.1 21.2144C174.56 20.7124 174.79 20.0919 174.79 19.3529C174.79 18.6139 174.56 18.0004 174.1 17.5124C173.654 17.0105 173.089 16.7595 172.406 16.7595C171.723 16.7595 171.151 17.0105 170.691 17.5124Z" fill="#2F80ED"/>
<path d="M183.284 24.7908H179.938V9.31373H183.284V24.7908Z" fill="#2F80ED"/>
<path d="M45.217 22.8248C43.739 21.3747 43 19.59 43 17.4706C43 15.3512 43.739 13.5664 45.217 12.1163C46.7089 10.6662 48.5495 9.94118 50.7386 9.94118C52.9277 9.94118 54.7612 10.6662 56.2392 12.1163C57.7312 13.5664 58.4771 15.3512 58.4771 17.4706C58.4771 19.59 57.7312 21.3747 56.2392 22.8248C54.7612 24.2749 52.9277 25 50.7386 25C48.5495 25 46.7089 24.2749 45.217 22.8248ZM47.8523 14.4379C47.0715 15.2606 46.681 16.2715 46.681 17.4706C46.681 18.6697 47.0715 19.6806 47.8523 20.5033C48.6331 21.3259 49.5952 21.7373 50.7386 21.7373C51.8819 21.7373 52.844 21.3259 53.6248 20.5033C54.4057 19.6806 54.7961 18.6697 54.7961 17.4706C54.7961 16.2715 54.4057 15.2606 53.6248 14.4379C52.844 13.6153 51.8819 13.2039 50.7386 13.2039C49.5952 13.2039 48.6331 13.6153 47.8523 14.4379Z" stroke="#2F80ED" stroke-width="0.8" mask="url(#path-1-outside-1_404_966)"/>
<path d="M67.1528 13.7059C68.324 13.7059 69.2582 14.1172 69.9554 14.9399C70.6665 15.7486 71.0221 16.8083 71.0221 18.119V24.7908H67.6757V18.7464C67.6757 18.1468 67.4874 17.6658 67.1109 17.3033C66.7345 16.9268 66.2604 16.7386 65.6887 16.7386C65.0334 16.7386 64.5035 16.9268 64.0992 17.3033C63.6948 17.6658 63.4926 18.1468 63.4926 18.7464V24.7908H60.1462V13.915H63.4926V16.634C63.7855 15.7277 64.2526 15.0166 64.894 14.5007C65.5353 13.9708 66.2883 13.7059 67.1528 13.7059Z" stroke="#2F80ED" stroke-width="0.8" mask="url(#path-1-outside-1_404_966)"/>
<path d="M76.3603 24.7908H73.0139V9.31373H76.3603V24.7908Z" stroke="#2F80ED" stroke-width="0.8" mask="url(#path-1-outside-1_404_966)"/>
<path d="M78.1332 10.9869C78.1332 10.4431 78.3284 9.97603 78.7188 9.58562C79.1092 9.19521 79.5763 9 80.1201 9C80.6639 9 81.131 9.19521 81.5214 9.58562C81.9118 9.97603 82.107 10.4431 82.107 10.9869C82.107 11.5168 81.9118 11.9839 81.5214 12.3882C81.131 12.7786 80.6639 12.9739 80.1201 12.9739C79.5763 12.9739 79.1092 12.7786 78.7188 12.3882C78.3284 11.9839 78.1332 11.5168 78.1332 10.9869ZM81.7933 24.7908H78.4469V13.915H81.7933V24.7908Z" stroke="#2F80ED" stroke-width="0.8" mask="url(#path-1-outside-1_404_966)"/>
<path d="M90.8864 13.7059C92.0577 13.7059 92.9919 14.1172 93.6891 14.9399C94.4002 15.7486 94.7557 16.8083 94.7557 18.119V24.7908H91.4093V18.7464C91.4093 18.1468 91.2211 17.6658 90.8446 17.3033C90.4681 16.9268 89.9941 16.7386 89.4224 16.7386C88.767 16.7386 88.2372 16.9268 87.8328 17.3033C87.4285 17.6658 87.2263 18.1468 87.2263 18.7464V24.7908H83.8799V13.915H87.2263V16.634C87.5191 15.7277 87.9862 15.0166 88.6276 14.5007C89.269 13.9708 90.0219 13.7059 90.8864 13.7059Z" stroke="#2F80ED" stroke-width="0.8" mask="url(#path-1-outside-1_404_966)"/>
<path d="M102.081 13.7059C103.963 13.7059 105.462 14.3891 106.578 15.7556C107.693 17.122 108.07 18.7255 107.707 20.566H99.8221C100.017 21.054 100.331 21.4444 100.763 21.7373C101.209 22.0161 101.718 22.1556 102.29 22.1556C103.308 22.1556 104.068 21.7512 104.57 20.9425L107.289 22.1974C106.773 23.0479 106.076 23.7312 105.197 24.2471C104.319 24.749 103.315 25 102.185 25C100.526 25 99.1319 24.4632 98.0024 23.3895C96.887 22.302 96.3292 20.9564 96.3292 19.3529C96.3292 17.7495 96.88 16.4109 97.9815 15.3373C99.0831 14.2497 100.45 13.7059 102.081 13.7059ZM102.081 16.5503C101.593 16.5503 101.154 16.6898 100.763 16.9686C100.373 17.2336 100.073 17.5961 99.8639 18.0562H104.319C103.914 17.0523 103.168 16.5503 102.081 16.5503Z" stroke="#2F80ED" stroke-width="0.8" mask="url(#path-1-outside-1_404_966)"/>
<path d="M115.574 20.8797L119.172 20.1477C119.423 21.3468 120.217 21.9464 121.556 21.9464C122.142 21.9464 122.616 21.8139 122.978 21.549C123.355 21.2841 123.543 20.9634 123.543 20.5869C123.543 20.2802 123.404 20.0222 123.125 19.8131C122.846 19.6039 122.476 19.4366 122.016 19.3111C121.57 19.1856 121.075 19.0601 120.531 18.9346C119.987 18.7952 119.444 18.6209 118.9 18.4118C118.356 18.2026 117.854 17.9447 117.394 17.6379C116.948 17.3312 116.585 16.9059 116.306 16.3621C116.027 15.8183 115.888 15.1769 115.888 14.4379C115.888 13.1551 116.425 12.0885 117.499 11.2379C118.572 10.3734 119.89 9.94118 121.451 9.94118C123.027 9.94118 124.317 10.3176 125.321 11.0706C126.339 11.8235 126.938 12.8205 127.119 14.0614L123.522 14.7935C123.411 14.2357 123.167 13.7965 122.79 13.4758C122.414 13.1551 121.926 12.9948 121.326 12.9948C120.796 12.9948 120.371 13.1133 120.05 13.3503C119.729 13.5734 119.569 13.8662 119.569 14.2288C119.569 14.5634 119.757 14.8423 120.134 15.0654C120.51 15.2885 120.984 15.4558 121.556 15.5673C122.128 15.6789 122.741 15.8462 123.397 16.0693C124.052 16.2924 124.665 16.5503 125.237 16.8431C125.809 17.1359 126.283 17.5961 126.659 18.2235C127.036 18.851 127.224 19.6039 127.224 20.4824C127.224 21.7651 126.666 22.8388 125.551 23.7033C124.449 24.5678 123.083 25 121.451 25C119.834 25 118.495 24.6235 117.436 23.8706C116.39 23.1176 115.77 22.1207 115.574 20.8797Z" stroke="#2F80ED" stroke-width="0.8" mask="url(#path-1-outside-1_404_966)"/>
<path d="M130.253 23.3895C129.138 22.302 128.58 20.9564 128.58 19.3529C128.58 17.7495 129.138 16.4109 130.253 15.3373C131.383 14.2497 132.777 13.7059 134.436 13.7059C135.594 13.7059 136.639 14.0126 137.574 14.6261C138.508 15.2257 139.205 16.0832 139.665 17.1987L136.611 18.2444C136.179 17.2545 135.454 16.7595 134.436 16.7595C133.753 16.7595 133.181 17.0105 132.721 17.5124C132.275 18.0004 132.052 18.6139 132.052 19.3529C132.052 20.0919 132.275 20.7124 132.721 21.2144C133.181 21.7024 133.753 21.9464 134.436 21.9464C135.454 21.9464 136.179 21.4514 136.611 20.4614L139.665 21.5072C139.205 22.6227 138.508 23.4871 137.574 24.1007C136.639 24.7002 135.594 25 134.436 25C132.777 25 131.383 24.4632 130.253 23.3895Z" stroke="#2F80ED" stroke-width="0.8" mask="url(#path-1-outside-1_404_966)"/>
<path d="M148.137 13.7059C149.308 13.7059 150.243 14.1172 150.94 14.9399C151.651 15.7486 152.007 16.8083 152.007 18.119V24.7908H148.66V18.7464C148.66 18.1468 148.472 17.6658 148.095 17.3033C147.719 16.9268 147.245 16.7386 146.673 16.7386C146.018 16.7386 145.488 16.9268 145.084 17.3033C144.679 17.6658 144.477 18.1468 144.477 18.7464V24.7908H141.131V9.31373H144.477V16.634C144.77 15.7277 145.237 15.0166 145.878 14.5007C146.52 13.9708 147.273 13.7059 148.137 13.7059Z" stroke="#2F80ED" stroke-width="0.8" mask="url(#path-1-outside-1_404_966)"/>
<path d="M155.253 23.3895C154.138 22.302 153.58 20.9564 153.58 19.3529C153.58 17.7495 154.138 16.4109 155.253 15.3373C156.383 14.2497 157.777 13.7059 159.436 13.7059C161.096 13.7059 162.483 14.2497 163.598 15.3373C164.728 16.4109 165.292 17.7495 165.292 19.3529C165.292 20.9564 164.728 22.302 163.598 23.3895C162.483 24.4632 161.096 25 159.436 25C157.777 25 156.383 24.4632 155.253 23.3895ZM157.721 17.5124C157.275 18.0004 157.052 18.6139 157.052 19.3529C157.052 20.0919 157.275 20.7124 157.721 21.2144C158.181 21.7024 158.753 21.9464 159.436 21.9464C160.119 21.9464 160.684 21.7024 161.13 21.2144C161.591 20.7124 161.821 20.0919 161.821 19.3529C161.821 18.6139 161.591 18.0004 161.13 17.5124C160.684 17.0105 160.119 16.7595 159.436 16.7595C158.753 16.7595 158.181 17.0105 157.721 17.5124Z" stroke="#2F80ED" stroke-width="0.8" mask="url(#path-1-outside-1_404_966)"/>
<path d="M168.223 23.3895C167.108 22.302 166.55 20.9564 166.55 19.3529C166.55 17.7495 167.108 16.4109 168.223 15.3373C169.352 14.2497 170.747 13.7059 172.406 13.7059C174.065 13.7059 175.453 14.2497 176.568 15.3373C177.698 16.4109 178.262 17.7495 178.262 19.3529C178.262 20.9564 177.698 22.302 176.568 23.3895C175.453 24.4632 174.065 25 172.406 25C170.747 25 169.352 24.4632 168.223 23.3895ZM170.691 17.5124C170.245 18.0004 170.022 18.6139 170.022 19.3529C170.022 20.0919 170.245 20.7124 170.691 21.2144C171.151 21.7024 171.723 21.9464 172.406 21.9464C173.089 21.9464 173.654 21.7024 174.1 21.2144C174.56 20.7124 174.79 20.0919 174.79 19.3529C174.79 18.6139 174.56 18.0004 174.1 17.5124C173.654 17.0105 173.089 16.7595 172.406 16.7595C171.723 16.7595 171.151 17.0105 170.691 17.5124Z" stroke="#2F80ED" stroke-width="0.8" mask="url(#path-1-outside-1_404_966)"/>
<path d="M183.284 24.7908H179.938V9.31373H183.284V24.7908Z" stroke="#2F80ED" stroke-width="0.8" mask="url(#path-1-outside-1_404_966)"/>
<g clip-path="url(#clip0_404_966)">
<g clip-path="url(#clip1_404_966)">
<path d="M-8 0.000488281H42.8513V33.9017H-8V0.000488281Z" fill="white"/>
<path d="M20.6038 0H14.2475V13.7721H-8V20.1285H14.2475V33.9007H20.6038V20.1285H42.8513V13.7721H20.6038V0Z" fill="#D80027"/>
<path d="M31.1104 22.8462L42.8515 29.369V22.8462H31.1104ZM22.9531 22.8462L42.8515 33.9007V30.7748L28.58 22.8462H22.9531ZM37.5512 33.9007L22.9531 25.79V33.9007H37.5512Z" fill="#0052B4"/>
<path d="M22.9531 22.8462L42.8515 33.9007V30.7748L28.58 22.8462H22.9531Z" fill="white"/>
<path d="M22.9531 22.8462L42.8515 33.9007V30.7748L28.58 22.8462H22.9531Z" fill="#D80027"/>
<path d="M0.972571 22.8462L-8 27.831V22.8462H0.972571ZM11.8983 24.2519V33.9008H-5.46826L11.8983 24.2519Z" fill="#0052B4"/>
<path d="M6.27148 22.8462L-8 30.7748V33.9007L11.8983 22.8462H6.27148Z" fill="#D80027"/>
<path d="M3.741 11.0546L-8 4.53172V11.0546H3.741ZM11.8983 11.0546L-8 0V3.12597L6.27148 11.0546H11.8983ZM-2.69975 0L11.8983 8.11078V0H-2.69975Z" fill="#0052B4"/>
<path d="M11.8983 11.0546L-8 0V3.12597L6.27148 11.0546H11.8983Z" fill="white"/>
<path d="M11.8983 11.0546L-8 0V3.12597L6.27148 11.0546H11.8983Z" fill="#D80027"/>
<path d="M33.8789 11.0547L42.8515 6.06988V11.0547H33.8789ZM22.9531 9.64894V0H40.3197L22.9531 9.64894Z" fill="#0052B4"/>
<path d="M28.58 11.0546L42.8515 3.12597V0L22.9531 11.0546H28.58Z" fill="#D80027"/>
</g>
</g>
<rect x="1" y="1" width="32" height="32" rx="9" stroke="#2F80ED" stroke-width="2"/>
<defs>
<clipPath id="clip0_404_966">
<rect width="34" height="34" rx="10" fill="white"/>
</clipPath>
<clipPath id="clip1_404_966">
<rect width="50.8513" height="33.9015" fill="white" transform="translate(-8)"/>
</clipPath>
</defs>
</svg>
