<svg width="29" height="52" viewBox="0 0 29 52" fill="none" xmlns="http://www.w3.org/2000/svg">
<path d="M27.301 25.9C19.587 30.7222 16.4701 38.1889 14.3663 46.3556C13.665 43.7111 12.8859 41.1444 11.8729 38.7333C9.76908 33.6778 6.65232 29.1667 1.27588 25.9C8.67823 21.2333 11.795 14.3889 13.8209 6.92222C13.9767 6.45555 14.0547 5.98888 14.2105 5.52222C15.7689 9.33333 17.0935 13.2222 18.8857 16.8778C20.5999 20.6111 23.7167 23.2555 27.301 25.9Z" fill="#FFBC58"/>
<path d="M27.6128 24.0333C27.2232 23.6444 26.7557 23.3333 26.3661 23.0222C22.9377 20.4556 20.2106 17.1111 18.7301 13.0667C17.4055 9.4111 16.3925 5.6 15.3016 1.86666C15.3016 1.78888 15.2237 1.63333 15.2237 1.55556C15.0679 1.16667 14.8341 0.7 14.5224 0C14.1328 0.544444 13.8212 0.777773 13.7432 1.08888C13.7432 1.16666 13.6653 1.24443 13.6653 1.39999C13.5874 1.86666 13.5095 2.33333 13.4315 2.87778C13.2757 3.57778 13.1199 4.2 12.964 4.82222C11.094 12.2889 8.21091 19.0556 1.43192 23.8C-0.516067 25.1222 -0.438148 26.3667 1.43192 27.7667C5.32789 30.6444 8.44473 34.1444 10.159 38.6555C10.4706 39.5111 10.7823 40.4445 11.094 41.3C12.029 44.1 12.7303 46.9778 13.6653 49.8556C13.8212 50.3222 14.1328 50.7111 14.3665 51.1C14.6782 50.6333 15.0679 50.2444 15.2237 49.7778C17.0159 41.0667 19.8989 32.9 27.6908 27.4555C29.2492 26.5222 29.1712 25.3556 27.6128 24.0333ZM14.3665 46.3556C14.2886 46.0444 14.2108 45.7333 14.0549 45.3444C13.8991 44.7222 13.6653 44.0222 13.5094 43.4C13.4315 43.0889 13.3537 42.8555 13.2757 42.5444C13.2757 42.4667 13.2757 42.4667 13.1977 42.3889C13.1198 42.0778 12.9641 41.7667 12.8861 41.4555C12.8082 41.1444 12.6524 40.8333 12.5744 40.4444C12.3407 39.9 12.1848 39.3556 11.951 38.8111C11.951 38.7333 11.8731 38.6556 11.8731 38.5778V38.5C11.7173 38.1889 11.6394 37.9556 11.4835 37.6444C11.3277 37.3333 11.1719 37.0222 11.094 36.7889C11.094 36.7889 11.094 36.7889 11.094 36.7111C10.9381 36.4 10.7823 36.0889 10.6265 35.7778C10.4706 35.4667 10.3148 35.2333 10.159 35C10.0031 34.6889 9.7693 34.3778 9.61346 34.0667C9.45762 33.7555 9.2239 33.5222 9.06806 33.2111C8.91222 32.9778 8.7564 32.7444 8.60057 32.5111C8.52265 32.4333 8.52259 32.3556 8.44467 32.2778C8.28883 32.0444 8.13303 31.8111 7.89927 31.5778C7.58759 31.1889 7.27586 30.8778 6.96418 30.4889C6.80834 30.3333 6.65254 30.1 6.41878 29.9444C6.26294 29.7889 6.02922 29.5555 5.87338 29.4C5.32795 28.8555 4.70457 28.2333 4.0033 27.7667C3.84746 27.6111 3.61364 27.4556 3.45781 27.3C3.22405 27.1444 2.99035 26.9889 2.83451 26.8333C2.36699 26.5222 1.89944 26.2111 1.43192 25.9C2.36695 25.3555 3.2241 24.7333 4.0033 24.0333C4.15914 23.8778 4.31496 23.8 4.4708 23.6444C4.62664 23.5667 4.70456 23.4111 4.86039 23.3333C5.01623 23.1778 5.17205 23.0222 5.32789 22.9444C5.95125 22.4 6.49674 21.7778 7.04218 21.2333C7.19802 21.0778 7.35384 20.8444 7.50967 20.6889C7.82135 20.3 8.13299 19.9111 8.44467 19.5222C8.52259 19.3667 8.67845 19.2111 8.75637 19.0556C9.53556 17.9667 10.1589 16.8778 10.7823 15.7111C10.8602 15.4778 11.016 15.3222 11.094 15.0889C11.4835 14.2333 11.8731 13.3778 12.2627 12.4444C12.3407 12.2111 12.4186 12.0555 12.4965 11.8222C12.5745 11.5889 12.6523 11.3555 12.7302 11.1222C12.8082 10.8889 12.8861 10.6556 12.964 10.4222C13.1199 10.0333 13.1978 9.64444 13.3536 9.25555C13.5874 8.47777 13.8212 7.7 14.0549 6.92222C14.2108 6.45555 14.2887 5.98888 14.4445 5.52222C16.0029 9.33333 17.3275 13.2222 19.1197 16.8778C20.9118 20.6111 24.0285 23.3333 27.6128 25.9778C19.6651 30.7222 16.5483 38.1889 14.3665 46.3556Z" fill="#3A0D1F"/>
</svg>
