<svg width="24" height="24" viewBox="0 0 24 24" fill="none" xmlns="http://www.w3.org/2000/svg">
<g clip-path="url(#clip0_207_1028)">
<path d="M12 2C17.5228 2 22 6.47715 22 12C22 17.5228 17.5228 22 12 22C10.1104 22 8.34058 21.475 6.83171 20.5624L3.79975 21.4542C3.03284 21.6798 2.32023 20.9672 2.54581 20.2002L3.43756 17.1683C2.52505 15.6594 2 13.8896 2 12C2 6.47715 6.47715 2 12 2ZM8.5 10.5C7.67157 10.5 7 11.1716 7 12C7 12.8284 7.67157 13.5 8.5 13.5C9.32843 13.5 10 12.8284 10 12C10 11.1716 9.32843 10.5 8.5 10.5ZM15.5 10.5C14.6716 10.5 14 11.1716 14 12C14 12.8284 14.6716 13.5 15.5 13.5C16.3284 13.5 17 12.8284 17 12C17 11.1716 16.3284 10.5 15.5 10.5Z" fill="#030A1B"/>
</g>
<defs>
<clipPath id="clip0_207_1028">
<rect width="24" height="24" fill="white"/>
</clipPath>
</defs>
</svg>
