<svg width="24" height="24" viewBox="0 0 24 24" fill="none" xmlns="http://www.w3.org/2000/svg">
<g clip-path="url(#clip0_207_1036)">
<path d="M18.0605 3C19.0639 3 19.9029 3.74111 20.0407 4.71895L20.0566 4.87524L20.9316 18.8752C21.0004 19.9765 20.1668 20.915 19.0845 20.9945L18.9355 21H5.06441C3.96092 21 3.07631 20.1094 3.06445 19.0243L3.06831 18.8752L3.94331 4.87524C4.00589 3.87387 4.7979 3.0827 5.78243 3.00609L5.93941 3H18.0605ZM14.9999 7C14.487 7 14.0644 7.38604 14.0066 7.88338L13.9999 8C13.9999 9.10457 13.1045 10 11.9999 10C10.8953 10 9.99988 9.10457 9.99988 8C9.99988 7.44772 9.55216 7 8.99988 7C8.4476 7 7.99988 7.44772 7.99988 8C7.99988 10.2091 9.79074 12 11.9999 12C14.209 12 15.9999 10.2091 15.9999 8C15.9999 7.44772 15.5522 7 14.9999 7Z" fill="#030A1B"/>
</g>
<defs>
<clipPath id="clip0_207_1036">
<rect width="24" height="24" fill="white"/>
</clipPath>
</defs>
</svg>
