<svg width="24" height="24" viewBox="0 0 24 24" fill="none" xmlns="http://www.w3.org/2000/svg">
<g clip-path="url(#clip0_207_1052)">
<path fill-rule="evenodd" clip-rule="evenodd" d="M19 4.98858V5.99999C20.1046 5.99999 21 6.89542 21 7.99999V18C21 19.1046 20.1046 20 19 20H5C3.89543 20 3 19.1046 3 18V7.99999C3 6.95543 3.83483 6.00716 4.8132 5.72763L15.8132 2.58477C17.4102 2.12847 19 3.32763 19 4.98858ZM15.5 11.5C14.6716 11.5 14 12.1716 14 13C14 13.8284 14.6716 14.5 15.5 14.5C16.3284 14.5 17 13.8284 17 13C17 12.1716 16.3284 11.5 15.5 11.5ZM17 4.98858C17 4.68408 16.7328 4.45718 16.4422 4.49177L16.3626 4.50782L11.1401 5.99999H17V4.98858Z" fill="#030A1B"/>
</g>
<defs>
<clipPath id="clip0_207_1052">
<rect width="24" height="24" fill="white"/>
</clipPath>
</defs>
</svg>
